<svg width="30" height="32" fill="none" xmlns="http://www.w3.org/2000/svg"><path d="M29 16.0254c0 8.0432-6.299 14.5063-14 14.5063S1 24.0686 1 16.0254C1 7.9822 7.299 1.519 15 1.519s14 6.4632 14 14.5064z" stroke="#FF5A5A" stroke-width="2"/><path fill-rule="evenodd" clip-rule="evenodd" d="M18.1264 22.6051c.2591-.0695.5352.179.4697.4391l-.0398.158a.3973.3973 0 0 1-.244.2744c-.6688.2542-1.2096.4509-1.6226.5902-.4522.1525-.9771.2287-1.5748.2287-.9195 0-1.6341-.2176-2.1436-.6527-.5096-.4352-.7644-.9875-.7644-1.657 0-.2603.0192-.5263.0575-.7978.0383-.2715.0996-.5783.1839-.9205l.9425-3.2582c.0843-.3124.1552-.6081.2126-.887.0575-.279.0863-.5337.0863-.7643 0-.4166-.0882-.7067-.2644-.8704-.1763-.1636-.5134-.2454-1.0115-.2454-.2452 0-.4962.0372-.7529.1115-.2836.0822-.5635-.1748-.4914-.4612l.0293-.1163a.4282.4282 0 0 1 .2602-.2953c.5464-.2112 1.0715-.3944 1.5755-.5498.567-.1748 1.1034-.2622 1.6092-.2622.9119 0 1.6149.2138 2.1092.6416.4942.4277.7414.9837.7414 1.6681 0 .1413-.0173.3905-.0518.7476-.0345.357-.0977.6843-.1896.9819l-.9426 3.247c-.0766.2603-.1455.5579-.2069.8926-.0613.3347-.0919.5877-.0919.7587 0 .4315.0996.7253.2988.8815.1993.1562.5441.2343 1.0345.2343.2299 0 .4904-.039.7816-.1171zM19 8.7747c0 .5654-.2203 1.047-.6609 1.445-.4406.398-.9713.597-1.592.597s-1.1532-.199-1.5977-.597c-.4444-.398-.6666-.8796-.6666-1.445 0-.5653.2222-1.0488.6666-1.4505.4445-.4017.977-.6025 1.5977-.6025.6207 0 1.1514.2008 1.592.6025.4406.4017.6609.8852.6609 1.4505z" fill="#FF5A5A"/></svg>