<svg width="50" height="50" viewBox="0 0 50 50" fill="none" xmlns="http://www.w3.org/2000/svg"><path fill-rule="evenodd" clip-rule="evenodd" d="M25 50C38.8071 50 50 38.8071 50 25C50 11.1929 38.8071 0 25 0C11.1929 0 0 11.1929 0 25C0 38.8071 11.1929 50 25 50ZM25 47.1154C37.214 47.1154 47.1154 37.214 47.1154 25C47.1154 12.786 37.214 2.88462 25 2.88462C12.786 2.88462 2.88462 12.786 2.88462 25C2.88462 37.214 12.786 47.1154 25 47.1154Z" fill="#FF5A5A"/><path d="M43.6392 22.5236C42.1367 19.9208 39.7959 18.2396 37.6738 18.2396C37.0246 18.2396 36.424 18.3963 35.8919 18.7042C34.0613 19.7641 32.0811 20.5281 30.0339 21.0146C28.6669 18.0355 25.4835 14.7563 25.0318 14.3008C24.6345 13.8997 23.9267 13.8997 23.528 14.3008C23.0947 14.7386 20.1236 17.7926 18.6819 20.6764C17.0919 20.1941 15.5528 19.5417 14.1068 18.7035C12.9085 18.0108 11.4089 18.0885 9.88174 18.9203C8.52256 19.661 7.27134 20.9405 6.35675 22.5243C4.34408 26.014 4.5939 29.8031 6.95166 31.1638C6.9566 31.1666 6.96295 31.1701 6.9693 31.1736C12.4399 34.3314 18.6748 36 24.9994 36C31.3225 36 37.5997 34.3081 43.0746 31.1503C45.4041 29.8016 45.6532 26.0126 43.6392 22.5236ZM24.2802 16.583C26.1715 18.6435 28.5434 21.7575 28.5434 23.3611C28.5434 25.7132 26.6302 27.6268 24.2802 27.6268C21.9288 27.6268 20.0171 25.7132 20.0171 23.3611C20.0171 21.7603 22.3897 18.6449 24.2802 16.583ZM24.9987 33.8816C19.0609 33.8816 13.2077 32.319 8.06879 29.3631C8.05679 29.3554 7.98622 29.3151 7.96011 29.301C6.88179 28.6429 6.7103 26.151 8.19017 23.5835C8.90152 22.3513 9.88668 21.3303 10.8944 20.7809C11.7363 20.3212 12.5211 20.2344 13.0468 20.5373C14.6036 21.439 16.2606 22.1409 17.9712 22.667C17.9275 22.9056 17.9007 23.138 17.9007 23.3604C17.9007 26.8804 20.7623 29.7444 24.281 29.7444C27.7982 29.7444 30.6612 26.8804 30.6612 23.3604C30.6612 23.2629 30.6429 23.1598 30.6337 23.0596C31.7819 22.7771 32.9082 22.4078 34.0035 21.9615C33.9872 22.1282 33.971 22.297 33.9661 22.4728C33.9272 24.0206 34.4092 25.7457 35.3238 27.3281C36.2525 28.9388 37.5059 30.195 38.8277 30.9201C34.4869 32.8542 29.7728 33.8816 24.9987 33.8816ZM42.0139 29.3158C41.8071 29.4352 41.5637 29.4959 41.292 29.4959H41.2913C40.1967 29.4959 38.436 28.4861 37.1572 26.2696C36.4459 25.0374 36.0542 23.6732 36.0839 22.5264C36.1072 21.5675 36.4233 20.843 36.9512 20.5387C37.1587 20.4187 37.4014 20.3579 37.6738 20.3579C38.7677 20.3579 40.527 21.3677 41.8057 23.5828C43.299 26.1686 43.1134 28.6803 42.0139 29.3158ZM38.3231 22.9198C37.7359 23.258 37.7776 24.433 38.4176 25.5416C39.0563 26.6495 40.0528 27.2751 40.6413 26.9362C41.2285 26.5951 41.1847 25.4194 40.546 24.3122C39.906 23.2036 38.9109 22.5787 38.3231 22.9198Z" fill="#FF5A5A"/></svg>