<svg width="50" height="50" viewBox="0 0 50 50" fill="none" xmlns="http://www.w3.org/2000/svg"><path d="M25 0C38.7886 0 50 11.2115 50 25C50 38.7884 38.7886 50 25 50C11.2114 50 0 38.7884 0 25C0 11.2115 11.2114 0 25 0ZM25 3.125C12.9003 3.125 3.125 12.9003 3.125 25C3.125 37.0995 12.9003 46.875 25 46.875C37.0997 46.875 46.875 37.0995 46.875 25C46.875 12.9003 37.0997 3.125 25 3.125ZM25 9.375C25.863 9.375 26.5625 10.0745 26.5625 10.9375V25C26.4992 25.6046 26.2499 25.9384 25.8789 26.2939L17.2607 34.9366C16.6505 35.5466 15.6736 35.5466 15.0635 34.9366C14.4532 34.3263 14.4532 33.3494 15.0635 32.7392L23.4375 24.3652V10.9375C23.4375 10.0745 24.137 9.375 25 9.375Z" fill="#FF5A5A"/></svg>