<svg width="30" height="30" fill="none" xmlns="http://www.w3.org/2000/svg"><path fill-rule="evenodd" clip-rule="evenodd" d="M2.9497 23.8476a15.3639 15.3639 0 0 1-2.2983-4.5017 15.6095 15.6095 0 0 1-.642-5.0012c.1164-3.3729 1.382-6.606 3.5889-9.1682C5.8052 2.6143 8.822.8755 12.153.2458A14.7976 14.7976 0 0 1 21.69 1.6812l.0982.0524a.6666.6666 0 0 1 .3577.364.662.662 0 0 1-.0068.509.7018.7018 0 0 1-.4016.2831.7047.7047 0 0 1-.4896-.049 13.6235 13.6235 0 0 0-8.6176-.8277c-2.823.686-5.346 2.2658-7.1894 4.5017-3.6877 4.3935-3.8912 11.1932-.4562 15.7159 1.6696 2.295 4.0558 3.975 6.786 4.7777a13.1845 13.1845 0 0 0 8.3754-.3213c2.7113-1.0445 5.003-2.9464 6.5228-5.4133a13.4894 13.4894 0 0 0 1.9088-8.3853v-.1048a.6717.6717 0 0 1 .0901-.4755.6769.6769 0 0 1 .3871-.2928.6506.6506 0 0 1 .4726.149c.1316.11.214.2674.2291.4377a14.6463 14.6463 0 0 1-1.4526 9.4994 14.9455 14.9455 0 0 1-5.0747 5.4997 15.0361 15.0361 0 0 1-7.1165 2.3633 15.0506 15.0506 0 0 1-7.3758-1.3652 14.973 14.973 0 0 1-5.7873-4.7516zm11.9529-7.4568c4.4028-4.8874 9.124-9.4592 14.1306-13.6835l.0147-.0266c.1213-.0985.4081.0266.6508.2806.2427.254.3603.546.2721.6711-4.3338 5.4731-9.0465 10.6152-14.1011 15.3859l-.0809.0796c-.2293.2151-.5319.3275-.8415.3125-.3095-.0149-.6007-.1559-.8095-.3921a139.7956 139.7956 0 0 1-5.2507-6.2673l-.0257-.0342c-.1066-.1137.022-.4094.261-.6559.239-.2464.5222-.3678.6325-.2654 1.7539 1.4825 3.46 3.0294 5.1477 4.5953z" fill="#FF5A5A"/></svg>