<svg width="30" height="30" fill="none" xmlns="http://www.w3.org/2000/svg"><path fill-rule="evenodd" clip-rule="evenodd" d="M2.9497 23.8476a15.3639 15.3639 0 0 1-2.2983-4.5017 15.6095 15.6095 0 0 1-.642-5.0012c.1164-3.3729 1.382-6.606 3.5889-9.1682C5.8052 2.6143 8.822.8755 12.153.2458A14.7976 14.7976 0 0 1 21.69 1.6812l.0982.0524a.6666.6666 0 0 1 .3577.364.662.662 0 0 1-.0068.509.7018.7018 0 0 1-.4016.2831.7047.7047 0 0 1-.4896-.049 13.6235 13.6235 0 0 0-8.6176-.8277c-2.823.686-5.346 2.2658-7.1894 4.5017-3.6877 4.3935-3.8912 11.1932-.4562 15.7159 1.6696 2.295 4.0558 3.975 6.786 4.7777a13.1845 13.1845 0 0 0 8.3754-.3213c2.7113-1.0445 5.003-2.9464 6.5228-5.4133a13.4894 13.4894 0 0 0 1.9088-8.3853v-.1048a.6717.6717 0 0 1 .0901-.4755.6769.6769 0 0 1 .3871-.2928.6506.6506 0 0 1 .4726.149c.1316.11.214.2674.2291.4377a14.6463 14.6463 0 0 1-1.4526 9.4994 14.9455 14.9455 0 0 1-5.0747 5.4997 15.0361 15.0361 0 0 1-7.1165 2.3633 15.0506 15.0506 0 0 1-7.3758-1.3652 14.973 14.973 0 0 1-5.7873-4.7516zm12.0787-7.7308A140.559 140.559 0 0 1 29.0412 3.0575l.0146-.0254c.1203-.094.4047.0254.6454.2678.2407.2424.3573.521.2698.6405a140.032 140.032 0 0 1-13.9836 14.6841l-.0802.076a1.1648 1.1648 0 0 1-.8345.2982 1.1629 1.1629 0 0 1-.8027-.3742 134.7541 134.7541 0 0 1-5.207-5.9815l-.0255-.0325c-.1057-.1086.0219-.3909.259-.6261.237-.2352.5177-.351.627-.2533 1.7394 1.4149 3.4313 2.8913 5.1049 4.3857z" fill="#64BE4B"/></svg>