<svg width="30" height="30" fill="none" xmlns="http://www.w3.org/2000/svg"><path fill-rule="evenodd" clip-rule="evenodd" d="M26.4402 5.0595c4.8568 3.723 4.7597 11.9328-.3886 18.3288-5.0511 6.396-13.0162 8.4962-17.9702 4.7731-.0971-.0954-.2914-.2863-.4857-.3818l6.1196-7.637 3.2055 2.3866 6.1196-7.7325-3.2055-2.3866 6.1196-7.7324c.1943.0954.2914.2864.4857.3818z" fill="#E5E5E5"/><path d="M19.436 12.1089l6.1068-7.697-.4717-.3614-6.1069 7.6969.4718.3615zM7.2253 27.4988l6.1069-7.6969-.4717-.3615-6.1069 7.6969.4717.3615zM6.9158 17.756C5.653 12.4101 9.5384 7.0642 15.1724 6.587l.2914 3.0547c-3.5941.2864-6.2168 3.6276-5.5368 7.0642L6.9158 17.756z" fill="#E5E5E5"/><path d="M.5048 19.7607C-1.9236 10.5009 4.6816.9547 14.4924 0l.2914 3.0548C7.0129 3.8185 1.6704 11.36 3.516 18.8061l-3.0112.9546z" fill="#E5E5E5"/></svg>