<svg width="50" height="50" viewBox="0 0 50 50" fill="none" xmlns="http://www.w3.org/2000/svg"><path fill-rule="evenodd" clip-rule="evenodd" d="M25 50C38.8071 50 50 38.8071 50 25C50 11.1929 38.8071 0 25 0C11.1929 0 0 11.1929 0 25C0 38.8071 11.1929 50 25 50ZM35.2153 26.414C35.7631 27.6643 37.0071 28.5403 38.4585 28.5403C40.4147 28.5403 42 26.9537 42 24.997C42 23.0407 40.4147 21.4555 38.4585 21.4555C37.0071 21.4555 35.7619 22.3314 35.2153 23.5805H31.9407C31.7567 22.6786 31.3971 21.8401 30.9058 21.0985L35.9289 16.0754C36.4831 16.3393 37.0955 16.5 37.75 16.5C40.0964 16.5 42 14.5964 42 12.25C42 9.90357 40.0964 8 37.75 8C35.4036 8 33.5 9.90357 33.5 12.25C33.5 12.9058 33.6607 13.5169 33.9263 14.072L28.9028 19.0951C28.1599 18.6029 27.3214 18.2429 26.4165 18.0589V14.7843C27.6656 14.2365 28.5415 12.9925 28.5415 11.5411C28.5415 9.58525 26.955 8 25 8C23.0437 8 21.4585 9.58525 21.4585 11.5415C21.4585 12.9942 22.3327 14.2369 23.5835 14.7847V18.0593C22.6786 18.2433 21.8401 18.6029 21.0985 19.0955L18.9085 16.9059C19.1728 16.3508 19.3335 15.7397 19.3335 15.0839C19.3335 12.7375 17.4299 10.8339 15.0835 10.8339C12.7371 10.8339 10.8335 12.7375 10.8335 15.0839C10.8335 17.4303 12.7371 19.3339 15.0835 19.3339C15.7393 19.3339 16.3504 19.1733 16.9055 18.9089L19.0951 21.0989C18.3538 22.2184 17.9165 23.5571 17.9165 25.0004C17.9165 26.4446 18.3538 27.7842 19.0951 28.9032L14.0733 33.9263C13.5186 33.6607 12.9058 33.5 12.25 33.5C9.90357 33.5 8 35.4036 8 37.75C8 40.0964 9.90357 42 12.25 42C14.5964 42 16.5 40.0964 16.5 37.75C16.5 37.0955 16.3393 36.4831 16.0754 35.9293L21.0985 30.9058C22.218 31.6457 23.5567 32.0835 25 32.0835C26.4433 32.0835 27.782 31.6462 28.9028 30.9058L31.4677 33.4707C30.9713 34.313 30.6665 35.2846 30.6665 36.3331C30.6665 39.4628 33.2042 42 36.3335 42C39.4627 42 42 39.4627 42 36.3335C42 33.2042 39.4627 30.6665 36.3335 30.6665C35.2846 30.6665 34.3134 30.9713 33.4711 31.4677L30.9062 28.9028C31.3971 28.1586 31.7571 27.3188 31.9411 26.4144L35.2153 26.414ZM37.75 10.8335C38.5333 10.8335 39.1665 11.4667 39.1665 12.25C39.1665 13.0333 38.5333 13.6665 37.75 13.6665C36.9667 13.6665 36.3335 13.0333 36.3335 12.25C36.3335 11.4667 36.9667 10.8335 37.75 10.8335ZM15.0835 16.5C14.3002 16.5 13.6665 15.8663 13.6665 15.0835C13.6665 14.3002 14.3002 13.6665 15.0835 13.6665C15.8663 13.6665 16.5 14.3002 16.5 15.0835C16.5 15.8663 15.8663 16.5 15.0835 16.5ZM12.25 39.1665C11.4667 39.1665 10.8335 38.5333 10.8335 37.75C10.8335 36.9667 11.4667 36.3335 12.25 36.3335C13.0333 36.3335 13.6665 36.9667 13.6665 37.75C13.6665 38.5333 13.0333 39.1665 12.25 39.1665ZM36.3335 33.5C37.8983 33.5 39.1665 34.7686 39.1665 36.3335C39.1665 37.8983 37.8983 39.1665 36.3335 39.1665C34.7686 39.1665 33.5 37.8983 33.5 36.3335C33.5 34.7686 34.7686 33.5 36.3335 33.5ZM25 29.25C22.6536 29.25 20.75 27.3477 20.75 25C20.75 22.6536 22.6536 20.75 25 20.75C27.3477 20.75 29.25 22.6536 29.25 25C29.25 27.3477 27.3477 29.25 25 29.25ZM12.08 27.72C10.5778 27.72 9.36 26.5009 9.36 24.9986C9.36 23.4979 10.5778 22.28 12.08 22.28C13.5822 22.28 14.8 23.4979 14.8 24.9986C14.8 26.5009 13.5822 27.72 12.08 27.72ZM22.28 37.92C22.28 39.4222 23.499 40.64 25 40.64C26.5034 40.64 27.72 39.4222 27.72 37.92C27.72 36.4166 26.5034 35.2 25 35.2C23.499 35.2 22.28 36.4166 22.28 37.92Z" fill="#83CB6F"/></svg>