<svg width="58" height="62" fill="none" xmlns="http://www.w3.org/2000/svg"><path d="M1.727 30.224c.812 3.34 3.636 5.65 3.975 9.216.327 3.436-3.571 4.393-2.585 7.81.601 2.082 2.883 2.301 4.681 2.478 1.471.145 2.442.71 3.902.446 2.436-.439 4.08 2.995 5.844 4.237 2.685 1.891 6.339 2.99 9.624 2.454.543-.088 5.343-1.735 5.507-1.462.783 1.307 1.828 2.735 3.062 3.644 1.9 1.403 4.193 1.961 6.104.143 2.42-2.303.984-5.575.362-8.4-.406-1.84 2.403-2.182 3.604-2.917.854-.524 1.49-1.318 2.058-2.123 1.577-2.236 1.717-5.377 2.341-7.953.47-1.935 1.333-3.663 2.64-5.17.67-.774 1.635-1.344 2.19-2.216 1.403-2.199.334-5.06-.732-7.191-.789-1.582-2.255-2.925-3.51-4.123-1.823-1.74-2.907-1.7-1.003-3.724.943-1.002 2.138-2.81 1.353-4.23-1.5-2.717-6-3.03-8.683-3.55-.114-.021-.227-.05-.34-.073.19-.038.384-.088.588-.16 1.683-.598 3.226-2.232 2.37-4.084C44.204 1.39 41.976.43 39.97.555c-.157-.05-.33-.022-.468.155-1.316 1.685-1.212 4.805.246 6.188-4.038-1.243-7.968-3.155-12.239-2.764-2.47.225-4.693 1.574-6.676 2.948-2.563 1.776-2.768-1.716-5.312-2.303-4.44-1.024-4.697 4.086-3.943 7.121 0 .005.004.008.005.012C7.25 16.253.063 23.383 1.728 30.224zm36.326-13.919c1.445.405 3.326 1.304 3.457 2.948.112 1.397-2.276 2.738-3.503 2.727-1.16-.01-1.387-1.57-1.376-2.42.017-1.223.58-2.387 1.422-3.255zm-2.44 21.736c1.224.336 3.62.99 3.623 2.432.003.792-1.124 1.494-1.672 1.862-.675.453-1.371.845-2.173 1.014-1.203.252-1.883-.718-1.91-1.792-.037-1.451.999-2.713 2.131-3.516zM27.4 32.158c.214-1.304.992-2.463 1.995-3.298.05.017.1.036.16.038 1.627.05 3.166.928 3.1 2.716-.067 1.811-2.264 2.944-3.854 2.948-1.332.004-1.572-1.362-1.4-2.404zm-7.845-16.36c1.887-.364 3.92-.278 5.62.688 2.004 1.138.8 3.017-.814 3.814-1.406.693-3.163.574-4.463-.274-1.58-1.03-1.193-2.877-.343-4.228zm-1.198 18.94c1.794-.875 3.71-.09 4.366 1.805.66 1.903-.773 4.066-2.564 4.716-1.402.509-2.732-.457-3.252-1.721-.725-1.764.191-3.562 1.45-4.8zM1.781 9.237a.425.425 0 0 0-.389.173C.237 10.835-.05 12.73.383 14.488c.331 1.343 1.437 2.625 2.934 2.09 1.786-.635 3.118-3.096 2.75-4.922-.418-2.078-2.343-2.99-4.286-2.42zM10.233 55.592a.44.44 0 0 0-.185.184l-.006.006c-.009.013-.015.028-.024.042-.894 1.35-1.09 3.151-.174 4.544.893 1.36 2.535 1.325 3.74.414 1.38-1.043 2.31-2.98 1.16-4.524-1.064-1.428-3.057-1.435-4.511-.666zM51.786 43.262c-.005 0-.01.004-.015.004a.442.442 0 0 0-.442.257c-.676 1.32-2.252 4.195-.597 5.451 1.297.985 3.194.18 4.444-.488 1.087-.58 2.88-1.897 2.617-3.348-.419-2.299-4.439-1.935-6.007-1.876z" fill="#FF5A5A"/></svg>