<svg width="51" height="62" fill="none" xmlns="http://www.w3.org/2000/svg"><g clip-path="url(#clip0)" fill="#FF5A5A"><path d="M5.813 14.646c-.554.14-1.09.345-1.598.608-.015.01-.026.022-.042.031A7.742 7.742 0 0 0 0 22.165a40.378 40.378 0 0 0 2.703 13.357c.275.745.548 1.425.812 2.059.515-7.253 2.439-20.862 9.568-24.572a15.909 15.909 0 0 1-1.482-2.972l-.009-.02c-.007-.022-.02-.05-.027-.072a38.253 38.253 0 0 1-1.507-8.904A1.108 1.108 0 0 0 8.95 0H6.852a1.106 1.106 0 0 0-1.1 1.185c.26 3.793.062 7.604-.592 11.35.039-.01.075-.025.11-.035a1.11 1.11 0 0 1 1.367 1.38 1.108 1.108 0 0 1-.827.766h.003zM35.175 13.297a12.746 12.746 0 0 0-2.55 3.04 16.306 16.306 0 0 1 3.778 4.108c.485.769.91 1.574 1.273 2.408 1.35 2.898 2.633 5.644 8.89 5.933v-7.728c-.003-4.281-3.474-7.753-7.762-7.761h-3.629zM49.858 6.648c.477 0 1.142-.89 1.142-2.22 0-1.328-.665-2.214-1.109-2.214-.498.096-1.108.926-1.108 2.215 0 1.288.634 2.177 1.07 2.22h.005z"/><path d="M15.522 15.511a1.11 1.11 0 0 1-.783-.322 7.657 7.657 0 0 1-.34-.369c-7.173 3.275-8.824 20.401-8.856 27.155A38.66 38.66 0 0 0 11.11 52.01C16.256 58.64 22.604 62 29.98 62c10.643 0 16.323-15.425 16.573-31.012-7.667-.332-9.452-4.124-10.887-7.197a16.274 16.274 0 0 0-1.11-2.114 14.703 14.703 0 0 0-2.935-3.31 14.217 14.217 0 0 0-.609 1.855 1.11 1.11 0 0 1-2.153-.533 15.71 15.71 0 0 1 1.314-3.511l.011-.02v-.008l.006-.007a14.893 14.893 0 0 1 3.77-4.73c.025-.022.047-.046.074-.068 4.184-3.463 9.645-4.404 12.991-4.636a5.641 5.641 0 0 1-.46-2.28c0-.617.101-1.23.297-1.815A60.923 60.923 0 0 0 35.39 5.197a2.07 2.07 0 0 1-.794.158 2.24 2.24 0 0 1-1.456-.553c-2.13-1.772-5.765-2.822-8.178-3.358-.009.01-.013.023-.022.034-.026.03-.053.058-.082.084a9.214 9.214 0 0 0-1.784 2.262 13.057 13.057 0 0 1 4.048 1.954c.57.422.898 1.095.877 1.804A2.252 2.252 0 0 1 27 9.385a12.183 12.183 0 0 0-4.378 5.204c.161.536.35 1.063.567 1.579.251.556.003 1.21-.554 1.462a1.123 1.123 0 0 1-.461.095c-.436 0-.832-.255-1.011-.653a18.368 18.368 0 0 1-.753-2.129l-.008-.023c-.07-.245-.143-.5-.213-.775a16.98 16.98 0 0 1 .242-9.86l.007-.015c.605-1.61 1.57-3.06 2.821-4.241L19.646 0c-.403-.006-.8.102-1.143.312-2.772 1.762-4.14 6.386-4.735 9.19a15.773 15.773 0 0 0 1.795 3.235.99.99 0 0 1 .082.098c.2.277.421.538.66.783a1.106 1.106 0 0 1-.783 1.893zm25.4 26.339c.074-.357.146-.718.215-1.083a1.109 1.109 0 0 1 2.18.405l-.222 1.132a1.108 1.108 0 0 1-1.312.862 1.108 1.108 0 0 1-.861-1.316zM29.979 57.571c3.95 0 7.526-4.157 9.816-11.403a1.11 1.11 0 0 1 2.116.664c-2.64 8.354-6.876 12.954-11.932 12.954a1.108 1.108 0 1 1 0-2.215z"/></g><defs><clipPath id="clip0"><path fill="#fff" d="M0 0h51v62H0z"/></clipPath></defs></svg>