<svg width="60" height="43" viewBox="0 0 60 43" fill="none" xmlns="http://www.w3.org/2000/svg"><path d="M6.49227 19.3356L8.70393 18.2534L12.1998 13.0587L13.2699 12.6258L14.4114 17.8926L12.9132 18.1091L11.7717 15.9446L10.9156 19.3356H14.6968L18.6207 20.3456L20.1903 19.3356L22.83 22.0772L23.9715 17.0268L25.8264 18.9027L26.9679 17.3154L28.8228 16.8104L31.5339 14.2852L31.962 13.0587L34.1736 13.4195L35.1011 14.646L33.4602 18.1091L37.5268 16.0168V15.0067L39.0963 14.646L40.8086 16.3775L42.5208 14.2852V12.8423L45.3032 10.8943L46.4447 9.2349H48.2283L51.3674 2.81376L54.0785 0L55.0773 1.58725L53.5077 3.60738L54.0785 4.90604L55.5767 5.19463L56.7895 10.5336V15.0067L58.9298 17.9648L60 22.0772L56.2901 19.6963L54.6492 12.8423L53.6504 13.0587L53.5077 17.6762L50.7967 22.0772L50.0119 28.7869L51.8668 29.2198L52.6516 28.2819L54.4352 30.302L55.7907 36.3624L55.648 40.2584H53.9358L53.2937 34.7752L52.0809 36.4346L49.4411 35.8574L47.3008 34.0537L44.8752 34.9195L45.0178 38.8154L43.0916 39.3205L40.2378 41.4849L36.8133 41.052L35.4578 40.2584L33.3175 40.6191L34.0309 41.4849L32.3187 42.495L30.9631 41.8456L28.3948 43L24.4709 41.052L22.9727 37.5889L21.6885 37.7332L20.1903 36.5067L20.1189 35.5688L15.3389 35.0638L14.5541 37.6611L11.5577 36.2903L10.0595 33.7651H6.84899L6.49227 37.8054L4.63734 38.3825L3.70987 42.0621L2.99643 41.4128L0 33.693L3.56718 31.9614L2.99643 28.5705L2.42568 25.1074L3.99524 22.8708L3.49584 21.5L5.63615 19.1913L6.49227 19.3356Z" fill="#A898D5"/><path d="M53.9358 27.849L57.2176 32.755L58.2878 32.3221L56.9322 30.302L53.9358 27.1275V27.849Z" fill="#A898D5"/><path d="M20.4043 17.8926V16.4497L22.9013 14.646L25.0416 13.5638H22.5446L20.3329 14.8624L18.9774 16.0889V17.8926H20.4043Z" fill="#A898D5"/></svg>