<svg width="41" height="50" viewBox="0 0 41 50" fill="none" xmlns="http://www.w3.org/2000/svg"><path d="M40.725 34.7828C39.9205 32.4439 34.661 30.7378 32.2685 29.6783C31.0957 29.1589 29.7702 28.8444 29.0692 28.3172C28.3619 27.7817 28.2579 26.6322 27.3554 25.82C26.9978 25.4978 25.9526 25.8939 25.8698 25.2522C25.7439 24.2778 26.7908 23.6683 27.1271 22.7561C27.4701 21.8261 27.2502 21.95 27.5014 20.8161C29.453 20.2628 30.3258 15.7217 29.0692 15.6078C29.1078 15.3994 29.1458 15.1767 29.1827 14.9561H11.8147C11.8522 15.1772 11.8903 15.3989 11.9294 15.6078C10.6722 15.7217 11.5781 20.2739 13.5297 20.8272C13.7798 21.9606 13.5285 21.8261 13.8721 22.7561C14.2089 23.6683 15.2541 24.2778 15.1282 25.2522C15.0448 25.8939 14.0008 25.4983 13.6432 25.82C12.7419 26.6322 12.6367 27.7817 11.9294 28.3172C11.2289 28.8444 9.90175 29.1583 8.72956 29.6783C6.33818 30.7378 1.07983 32.4444 0.274121 34.7828C-0.181327 36.1089 0.0833248 37.1761 0.0200993 38.6417H0.020659C0.020659 38.6417 0.0200993 38.6483 0.0200993 38.6522C0.0200993 39.8922 3.79405 40.9794 9.45693 41.5883V35.0878C9.45693 33.6367 10.7125 32.4561 12.2545 32.4561H28.7446C30.2872 32.4561 31.5428 33.6367 31.5428 35.0878V41.5011C37.1072 40.8783 40.9791 39.835 40.9791 38.6522C40.9791 38.6483 40.9785 38.6439 40.9785 38.6439L40.9791 38.6417C40.917 37.1761 41.1816 36.1089 40.725 34.7828Z" fill="#A898D5"/><path d="M10.4338 13.2006H30.5642C31.3492 13.2006 31.9843 12.5694 31.9843 11.7911C31.9843 11.0122 31.3492 10.3817 30.5642 10.3817H30.1781C30.1781 6.63611 28.0189 3.39333 24.87 1.80722L24.0671 6.32278C24.0044 6.68056 23.6911 6.93167 23.3369 6.93167C23.2949 6.93167 23.2519 6.92833 23.2082 6.92056C22.8042 6.84945 22.5351 6.46778 22.6067 6.06667L23.521 0.909445C23.178 0.363889 22.5687 0 21.8726 0H19.1254C18.4294 0 17.8206 0.363889 17.4771 0.909445L18.393 6.06722C18.4641 6.46833 18.1949 6.85 17.791 6.92111C17.7473 6.92889 17.7042 6.93222 17.6617 6.93222C17.3081 6.93222 16.9948 6.68056 16.9315 6.32333L16.1297 1.80833C12.9808 3.39389 10.8216 6.63611 10.8216 10.3817H10.4338C9.64996 10.3817 9.01435 11.0122 9.01435 11.7911C9.01435 12.5694 9.6494 13.2006 10.4338 13.2006Z" fill="#A898D5"/><path d="M28.7441 34.2106H22.7041V38.1511C22.7041 38.6361 22.3091 39.0283 21.8206 39.0283H19.1774C18.6901 39.0283 18.294 38.6361 18.294 38.1511V34.2106H12.254C11.6844 34.2106 11.2233 34.6039 11.2233 35.0878V49.1228C11.2233 49.6078 11.6849 50 12.254 50H28.7441C29.3137 50 29.7753 49.6078 29.7753 49.1228V35.0878C29.7753 34.6039 29.3137 34.2106 28.7441 34.2106ZM28.0083 48.0261H24.475V46.7106H28.0083V48.0261Z" fill="#A898D5"/></svg>