<svg width="30" height="30" fill="none" xmlns="http://www.w3.org/2000/svg"><path d="M15 1.875c7.313 0 13.125 5.813 13.125 13.125 0 7.313-5.813 13.125-13.125 13.125-7.313 0-13.125-5.813-13.125-13.125C1.875 7.687 7.688 1.875 15 1.875zM15 0C6.75 0 0 6.75 0 15s6.75 15 15 15 15-6.75 15-15S23.25 0 15 0z" fill="#FF5A5A"/><path d="M13.125 11.25a1.876 1.876 0 1 1-3.751-.001 1.876 1.876 0 0 1 3.751.001zM20.625 11.25a1.876 1.876 0 1 1-3.751-.001 1.876 1.876 0 0 1 3.751.001zM21.188 23.063C19.875 21 17.438 19.688 15 19.688c-2.438 0-4.875 1.312-6.188 3.375l-1.5-1.125C9 19.313 11.813 17.813 15 17.813c3.188 0 6 1.5 7.688 4.125l-1.5 1.125z" fill="#FF5A5A"/></svg>