<svg width="210" height="60" fill="none" xmlns="http://www.w3.org/2000/svg"><path d="M0 .372C.338.318.682.352 1.022.344c15.422 19.798 30.833 39.604 46.258 59.4h-7.205C28.612 45.083 17.16 30.413 5.702 15.75v43.993H0V.373zM8.206.344h7.283C26.948 15.035 38.403 29.73 49.86 44.424c.002-14.693 0-29.387.001-44.08 1.897 0 3.794-.005 5.69.001-.002 19.8 0 39.598 0 59.397h-1.006C39.095 39.947 23.652 20.143 8.206.344z" fill="#fff" fill-opacity=".4"/><path d="M38.402.344h5.695v27.287c-1.9-2.428-3.8-4.856-5.696-7.288.003-6.666 0-13.332 0-19.999zM70.17.655c2.107-.397 4.26-.3 6.391-.312l5.926.001v8.797c-.011 1.868.074 3.754-.272 5.6-.346 1.981-1.133 3.938-2.528 5.415-1.38 1.489-3.279 2.4-5.232 2.865-1.825.447-3.716.525-5.587.503-2.544.002-5.087-.002-7.632.002-.008-2.9 0-5.799-.003-8.698.012-1.934-.083-3.888.287-5.797.373-2.063 1.24-4.095 2.76-5.574 1.58-1.566 3.73-2.418 5.89-2.802zm1.384 5.32c-1.336.22-2.704.785-3.51 1.922-1.016 1.42-1.126 3.243-1.115 4.928v5.253c1.75-.031 3.516.108 5.25-.188 1.36-.224 2.753-.815 3.55-1.992.988-1.443 1.078-3.27 1.062-4.963V5.791c-1.746.032-3.507-.11-5.237.185zM199.183 9.018c2.015-.253 4.13-.029 5.968.871a8.178 8.178 0 0 1 3.478 3.216c1.11 1.887 1.444 4.172 1.11 6.322-.28 1.826-1.121 3.578-2.454 4.869-1.313 1.29-3.069 2.076-4.88 2.34-1.927.278-3.947.114-5.749-.65a8.205 8.205 0 0 1-3.744-3.158c-1.166-1.827-1.571-4.076-1.315-6.212.218-1.883 1.02-3.714 2.353-5.075 1.375-1.427 3.278-2.277 5.233-2.523zm.38 5.078c-.734.172-1.418.582-1.874 1.188-.59.777-.8 1.784-.767 2.744.028.944.318 1.92.979 2.618.593.638 1.452.972 2.309 1.042.999.088 2.072-.076 2.889-.694.721-.534 1.151-1.386 1.297-2.259.166-1.006.072-2.083-.404-2.996a3.197 3.197 0 0 0-1.762-1.52c-.853-.3-1.791-.32-2.667-.123zM97.084 9.264c1.426.002 2.853-.005 4.279.003a6038.68 6038.68 0 0 0 6.774 8.38V9.265h5.005c.003 5.716-.009 11.43.006 17.146-1.42.022-2.839.003-4.257.01-2.252-2.77-4.502-5.543-6.753-8.312l-.001 8.31c-1.684.002-3.369.002-5.053 0V9.265zM116.66 9.264h5.283v8.854c.012.812-.086 1.677.306 2.424.317.656.997 1.074 1.707 1.173.827.128 1.764-.01 2.385-.616.519-.512.701-1.268.703-1.976.005-3.287-.003-6.574.004-9.86 1.758.002 3.516 0 5.275.001.001 2.887 0 5.774 0 8.66-.008 1.03.052 2.072-.163 3.088-.303 1.611-1.174 3.123-2.477 4.128-1.443 1.134-3.307 1.622-5.121 1.623-1.852.016-3.753-.477-5.233-1.622a6.684 6.684 0 0 1-2.332-3.423c-.299-.97-.356-1.99-.338-2.998.001-3.152-.001-6.304.001-9.456zM135.848 9.264h4.472c1.565 2.65 3.126 5.304 4.691 7.955 1.572-2.637 3.12-5.29 4.664-7.944 1.495-.025 2.991-.005 4.488-.01-.006 5.72.011 11.44-.009 17.16-1.679-.012-3.358-.002-5.038-.006-.002-2.943.003-5.886-.002-8.83-.943 1.638-1.889 3.272-2.829 4.911-.85.005-1.699 0-2.549.002-.949-1.637-1.89-3.28-2.84-4.916-.003 2.944 0 5.888-.002 8.834l-5.047-.001c0-5.718-.001-11.436.001-17.154zM157.688 9.264h12.619v4.404c-2.446.003-4.892-.003-7.337.004 0 .737.005 1.474-.002 2.212 2.277.013 4.555 0 6.834.006v3.718h-6.83v2.425l7.491.001v4.385h-12.775V9.264zM173.988 9.264h8.266c1.54-.018 3.152.087 4.537.827a4.248 4.248 0 0 1 1.827 1.872c.524 1.067.622 2.286.554 3.456-.064 1.052-.309 2.133-.938 2.998-.331.466-.777.834-1.254 1.143.951 2.284 1.886 4.573 2.831 6.859h-5.576l-2.109-5.595c-.96-.002-1.92 0-2.879 0v5.595h-5.26l.001-17.154zm5.267 4.4c-.019 1.07-.004 2.14-.008 3.21 1-.001 2.001.005 3.002-.002.543-.006 1.119-.273 1.355-.787a1.96 1.96 0 0 0-.031-1.682c-.252-.478-.802-.719-1.324-.729-.998-.016-1.996.005-2.994-.01zM11.385 32.46c1.844 2.353 3.68 4.712 5.526 7.064.069.106.187.206.168.348l.001 19.871h-5.696l.001-27.283zM61.228 34.399c7.086-.016 14.172-.002 21.259-.007v5.695c-7.086-.004-14.171.01-21.257-.007.003-1.894.008-3.788-.002-5.681zM97.084 34.398c1.427.003 2.856-.007 4.284.005 2.25 2.79 4.513 5.568 6.769 8.354v-8.358c1.668-.002 3.336-.002 5.005 0v17.147c-1.418.002-2.835 0-4.252.001-2.252-2.769-4.501-5.541-6.753-8.31v8.31h-5.053v-17.15zM117.37 34.392h16.188v4.41h-2.017c1.158 4.25 2.327 8.496 3.485 12.746-1.815-.003-3.628.001-5.442-.003-.234-.954-.472-1.908-.709-2.862h-7.047c-.237.955-.478 1.908-.712 2.863-1.737.003-3.474-.001-5.212.002 1.16-4.25 2.327-8.497 3.487-12.746h-2.021v-4.41zm6.918 4.41c-.473 1.9-.947 3.8-1.418 5.701h4.963c-.475-1.9-.947-3.8-1.42-5.7-.708-.002-1.417 0-2.125 0zM136.44 34.398h14.609v4.404h-4.677v12.744c-1.751.002-3.502 0-5.253.001l-.001-12.745h-4.678v-4.404zM153.889 34.398h5.277v8.88c.009.805-.083 1.666.31 2.404.32.654 1.001 1.067 1.709 1.164.799.118 1.695 0 2.316-.557.562-.501.766-1.286.766-2.016.002-3.292 0-6.584.002-9.875h5.277v8.478c-.013 1.097.063 2.207-.167 3.288-.301 1.56-1.127 3.028-2.372 4.026-1.426 1.164-3.291 1.68-5.11 1.701-1.876.035-3.81-.446-5.316-1.599a6.696 6.696 0 0 1-2.385-3.53 8.573 8.573 0 0 1-.308-2.495c.001-3.29-.001-6.58.001-9.87zM173.07 34.398h8.484c.932-.013 1.872.041 2.781.255 1.022.237 2.026.704 2.732 1.501.997 1.111 1.254 2.678 1.196 4.124-.035 1.032-.219 2.091-.759 2.987-.349.588-.863 1.063-1.441 1.419.943 2.29 1.889 4.58 2.831 6.869-1.862-.005-3.725.01-5.586-.007-.699-1.868-1.392-3.739-2.116-5.596-.956.017-1.913.003-2.869.008v5.594c-1.75.003-3.502 0-5.253 0V34.399zm5.253 4.404v3.206h2.429c.517.01 1.087.025 1.524-.3.632-.465.715-1.402.424-2.083-.239-.554-.86-.828-1.436-.82-.98-.008-1.961 0-2.941-.003zM192.346 34.392h16.188v4.41l-2.02.001c1.163 4.237 2.317 8.478 3.486 12.714v.028c-1.815 0-3.628.009-5.443-.005-.227-.954-.471-1.905-.707-2.857h-7.048l-.714 2.863c-1.736.002-3.473 0-5.21.001l3.489-12.745h-2.021v-4.41zm6.916 4.41c-.473 1.9-.947 3.801-1.418 5.701h4.965c-.475-1.9-.95-3.8-1.42-5.7-.709 0-1.419-.002-2.127 0zM61.233 45.858h21.254l-.001 5.689H61.233v-5.69z" fill="#fff" fill-opacity=".4"/></svg>