<svg width="210" height="60" fill="none" xmlns="http://www.w3.org/2000/svg"><path d="M0 .3728C.3384.318.6817.3518 1.022.3448 16.4437 20.1423 31.8554 39.9485 47.28 59.7438h-7.2052c-11.4622-14.66-22.9144-29.3301-34.3726-43.9932-.001 14.6641 0 29.3292 0 43.9932H0V.3728zM8.2063.3448c2.4274-.001 4.8557 0 7.2831-.001 11.4582 14.693 22.9134 29.388 34.3706 44.082.002-14.694 0-29.388.001-44.081 1.8973.001 3.7937-.004 5.6901.002-.002 19.7992 0 39.5975-.001 59.3968H54.545C39.0945 39.9473 23.6519 20.144 8.2063.3448z" fill="#64BE4B"/><path d="M38.4019.3445c1.8984-.001 3.7967-.001 5.6951 0 0 9.0947.001 18.1904 0 27.286a5078.637 5078.637 0 0 1-5.6961-7.2871c.003-6.6663 0-13.3326.001-19.9989zM70.1703.6557c2.107-.3972 4.2589-.2994 6.3908-.3114 1.9753.001 3.9505 0 5.9257.001v8.7963c-.011 1.8684.0739 3.7538-.2715 5.6003-.3463 1.9812-1.1328 3.9375-2.5281 5.4147-1.3794 1.4892-3.2788 2.4004-5.2321 2.8655-1.8255.4472-3.7159.525-5.5873.5031-2.5442.002-5.0873-.002-7.6315.002-.008-2.8995-.001-5.799-.003-8.6985.012-1.9343-.0838-3.8876.2865-5.797.3733-2.063 1.2396-4.0951 2.7607-5.5743 1.579-1.566 3.7289-2.4174 5.8898-2.8017zm1.3834 5.3209c-1.3355.2186-2.7039.7845-3.5104 1.9213-1.015 1.4193-1.1248 3.2429-1.1148 4.9277 0 1.7506.001 3.5023 0 5.253 1.7506-.031 3.5163.1077 5.251-.1877 1.3604-.2236 2.7527-.8154 3.5502-1.9922.9871-1.4432 1.0769-3.2698 1.061-4.9625V5.792c-1.7457.0319-3.5063-.1098-5.237.1846zM199.183 9.0179c2.015-.2525 4.13-.029 5.968.8713 1.442.6987 2.67 1.8305 3.478 3.2159 1.11 1.8864 1.444 4.1721 1.11 6.322-.28 1.8255-1.121 3.5781-2.454 4.8687-1.313 1.2895-3.069 2.076-4.88 2.3405-1.927.2775-3.947.1138-5.749-.6507-1.529-.6428-2.859-1.7537-3.744-3.158-1.166-1.8265-1.571-4.0753-1.315-6.2122.218-1.8824 1.02-3.7139 2.353-5.0743 1.375-1.4273 3.278-2.2767 5.233-2.5232zm.38 5.0783c-.734.1717-1.418.5819-1.874 1.1878-.59.7765-.8 1.7836-.767 2.7437.028.9442.318 1.9194.979 2.618.593.6378 1.452.9722 2.309 1.0421.999.0878 2.072-.0759 2.889-.6937.721-.534 1.151-1.3864 1.297-2.2587.166-1.0061.072-2.0831-.404-2.9963-.368-.7067-1.012-1.2576-1.762-1.5211-.853-.2984-1.791-.3194-2.667-.1218zM97.0842 9.2637c1.4263.003 2.8525-.004 4.2788.004 2.255 2.7956 4.514 5.5883 6.774 8.38.001-2.7937.001-5.5884 0-8.383 1.668-.001 3.336-.001 5.005 0 .003 5.7151-.009 11.4302.006 17.1453-1.42.022-2.839.003-4.257.01-2.252-2.7707-4.502-5.5424-6.753-8.3122-.001 2.7707 0 5.5415-.001 8.3112-1.684.001-3.369.001-5.0528 0 0-5.7181-.001-11.4362 0-17.1553zM116.66 9.2647c1.76 0 3.522-.001 5.283 0v8.8531c.012.8125-.086 1.6778.306 2.4244.317.6557.997 1.0739 1.707 1.1728.827.1277 1.764-.01 2.385-.6159.519-.512.701-1.2676.703-1.9762.005-3.2867-.003-6.5735.004-9.8592 1.758.002 3.516 0 5.275.001.001 2.8865 0 5.773 0 8.6595-.008 1.03.052 2.072-.163 3.0881-.303 1.6109-1.174 3.123-2.477 4.1281-1.443 1.1339-3.307 1.6219-5.121 1.6229-1.852.016-3.753-.4771-5.233-1.6219-1.118-.8533-1.939-2.076-2.332-3.4235-.299-.9691-.356-1.9902-.338-2.9982.001-3.152-.001-6.304.001-9.455zM135.848 9.265c1.49 0 2.98 0 4.472-.001 1.565 2.651 3.126 5.305 4.691 7.9559 1.572-2.637 3.12-5.2899 4.664-7.9438 1.495-.026 2.991-.005 4.488-.011-.006 5.7201.011 11.4402-.009 17.1603-1.679-.012-3.358-.002-5.038-.006-.002-2.9424.003-5.8858-.002-8.8292-.943 1.6369-1.889 3.2718-2.829 4.9107-.85.0049-1.699 0-2.549.002-.949-1.6369-1.89-3.2798-2.84-4.9167-.003 2.9444 0 5.8888-.002 8.8342-1.682-.001-3.365 0-5.047-.001 0-5.7181-.001-11.4362.001-17.1543zM157.688 9.2647c4.206 0 8.412 0 12.619-.001.001 1.4682 0 2.9364 0 4.4046-2.446.003-4.892-.003-7.337.004 0 .7366.005 1.4742-.002 2.2118 2.277.0129 4.555.001 6.834.006v3.7179c-2.277 0-4.554-.001-6.83 0a980.347 980.347 0 0 0 0 2.4253c2.497.001 4.994 0 7.491.001v4.3847c-4.258.001-8.517.001-12.775 0-.001-5.7181-.001-11.4362 0-17.1543zM173.988 9.2647h8.266c1.54-.019 3.152.0868 4.537.8264.783.4152 1.438 1.073 1.827 1.8724.524 1.067.622 2.2857.554 3.4555-.064 1.0519-.309 2.1329-.938 2.9982-.331.4662-.777.8344-1.254 1.1429.951 2.2836 1.886 4.5733 2.831 6.8589-1.859.001-3.717 0-5.576.001-.704-1.8655-1.407-3.7299-2.109-5.5953-.96-.002-1.92-.001-2.879-.001-.001 1.8654 0 3.7308 0 5.5953-1.754.001-3.507.001-5.26 0 .001-5.7181 0-11.4362.001-17.1543zm5.267 4.3996c-.019 1.07-.004 2.1399-.008 3.2099 1-.001 2.001.005 3.002-.002.543-.006 1.119-.2735 1.355-.7865.239-.524.236-1.1698-.031-1.6828-.252-.4781-.802-.7186-1.324-.7286-.998-.016-1.996.005-2.994-.01zM11.3853 32.4609c1.8435 2.3526 3.679 4.7121 5.5255 7.0636.0688.1058.1876.2056.1686.3483.001 6.6234 0 13.2478.001 19.8712h-5.6961c0-9.0947-.001-18.1884.001-27.2831zM61.2283 34.3985c7.0855-.0159 14.172-.0019 21.2585-.0069v5.6951c-7.0855-.004-14.171.01-21.2565-.007.003-1.8934.008-3.7878-.002-5.6812zM97.0842 34.3976c1.4273.003 2.8555-.007 4.2838.005 2.25 2.7896 4.513 5.5683 6.769 8.354 0-2.7867.001-5.5723 0-8.358 1.668-.002 3.336-.002 5.005 0-.001 5.7151-.001 11.4312 0 17.1473-1.418.002-2.835 0-4.252.001-2.252-2.7687-4.501-5.5414-6.753-8.3102 0 2.7698.001 5.5395 0 8.3102h-5.0528c-.001-5.7161 0-11.4332 0-17.1493zM117.37 34.3916h16.188c0 1.4702.001 2.9404 0 4.4106h-2.017c1.158 4.2489 2.327 8.4958 3.485 12.7457-1.815-.003-3.628.001-5.442-.003-.234-.9542-.472-1.9083-.709-2.8615-2.35-.001-4.698 0-7.047-.001-.237.9552-.478 1.9083-.712 2.8635-1.737.003-3.474-.001-5.212.002 1.16-4.2499 2.327-8.4968 3.487-12.7457-.674-.001-1.348 0-2.021 0v-4.4106zm6.918 4.4106c-.473 1.9004-.947 3.7998-1.418 5.7011h4.963c-.475-1.9003-.947-3.8007-1.42-5.7001-.708-.002-1.417-.001-2.125-.001zM136.44 34.3984h14.609c.001 1.4682.001 2.9364 0 4.4046-1.559 0-3.118 0-4.677-.001-.001 4.249-.001 8.4969 0 12.7448-1.751.002-3.502 0-5.253.001-.001-4.2489 0-8.4968-.001-12.7448h-4.678v-4.4046zM153.889 34.3977c1.759 0 3.518-.001 5.277.001-.001 2.9594 0 5.9197 0 8.8791.009.8055-.083 1.6658.31 2.4044.32.6538 1.001 1.067 1.709 1.1638.799.1178 1.695 0 2.316-.5569.562-.5011.766-1.2856.766-2.0162.002-3.2917 0-6.5835.002-9.8752 1.759 0 3.518-.001 5.277.001-.001 2.8256 0 5.6522 0 8.4779-.013 1.0969.063 2.2068-.167 3.2877-.301 1.559-1.127 3.0282-2.372 4.0263-1.426 1.1638-3.291 1.6798-5.11 1.7008-1.876.0349-3.81-.4462-5.316-1.599-1.156-.8723-1.997-2.1379-2.385-3.5312-.232-.8085-.321-1.6549-.308-2.4943.001-3.2897-.001-6.5795.001-9.8692zM173.07 34.3983h8.484c.932-.013 1.872.0419 2.781.2555 1.022.2365 2.026.7036 2.732 1.5011.997 1.1109 1.254 2.6779 1.196 4.1242-.035 1.031-.219 2.091-.759 2.9863-.349.5879-.863 1.063-1.441 1.4193.943 2.2906 1.889 4.5793 2.831 6.8689-1.862-.005-3.725.01-5.586-.007-.699-1.8684-1.392-3.7389-2.116-5.5963-.956.0169-1.913.003-2.869.008 0 1.8644-.001 3.7298 0 5.5943-1.75.003-3.502 0-5.253.001V34.3983zm5.253 4.4046a1712.966 1712.966 0 0 0 0 3.2059c.81 0 1.618-.001 2.429 0 .517.009 1.087.0249 1.524-.3005.632-.4651.715-1.4013.424-2.083-.239-.5539-.86-.8274-1.436-.8194-.98-.008-1.961-.001-2.941-.003zM192.346 34.3916h16.188v4.4096c-.674.002-1.348 0-2.02.002 1.163 4.2369 2.317 8.4779 3.486 12.7138v.0279c-1.815 0-3.628.009-5.443-.005-.227-.9541-.471-1.9053-.707-2.8565-2.35 0-4.699-.001-7.048 0l-.714 2.8625c-1.736.002-3.473 0-5.21.001 1.162-4.2479 2.326-8.4958 3.489-12.7447-.675-.001-1.348 0-2.021 0-.001-1.4702 0-2.9404 0-4.4106zm6.916 4.4106c-.473 1.9004-.947 3.8008-1.418 5.7011 1.655 0 3.31.001 4.965 0-.475-1.9003-.95-3.7997-1.42-5.7011-.709 0-1.419-.001-2.127 0zM61.2334 45.8582c7.0845-.001 14.169-.001 21.2535 0 0 1.8964.001 3.7927-.001 5.6891H61.2334c-.001-1.8964 0-3.7927 0-5.6891z" fill="#64BE4B"/></svg>