<svg width="61" height="45" fill="none" xmlns="http://www.w3.org/2000/svg"><g clip-path="url(#clip0)" fill="#fff" fill-opacity=".4"><path d="M0 .2794C.2517.2382.5071.2637.7603.2584c11.4722 14.848 22.937 29.7027 34.4114 44.5492h-5.3601C21.2849 33.8125 12.7656 22.81 4.2418 11.8127c-.0007 10.998 0 21.9968 0 32.9949H0V.2794zM6.1048.2586c1.8057-.0008 3.6122 0 5.4179-.0008 8.5238 11.0198 17.0453 22.041 25.5683 33.0615.0015-11.0205 0-22.041.0008-33.0607 1.4114.0007 2.8222-.003 4.2329.0015-.0015 14.8494 0 29.6981-.0007 44.5476h-.7477C29.0825 29.9605 17.5948 15.108 6.1048.2586z"/><path d="M28.5672.2584c1.4123-.0008 2.8245-.0008 4.2367 0 0 6.821.0007 13.6427 0 20.4645a3787.4621 3787.4621 0 0 1-4.2374-5.4653c.0022-4.9998 0-9.9995.0007-14.9992zM52.1999.4913c1.5674-.298 3.1682-.2246 4.7542-.2335 1.4693.0007 2.9387 0 4.4081.0007v6.5972c-.0082 1.4013.055 2.8154-.2019 4.2002-.2577 1.486-.8428 2.9532-1.8808 4.0611-1.0261 1.1168-2.439 1.8003-3.8921 2.1491-1.358.3354-2.7643.3938-4.1564.3773-1.8926.0015-3.7845-.0015-5.6771.0015-.0059-2.1746-.0007-4.3492-.0022-6.5238.0089-1.4508-.0624-2.9157.2131-4.3478.2777-1.5473.9221-3.0713 2.0537-4.1807C48.9931 1.418 50.5924.7796 52.1999.4913zM53.229 4.482c-.9934.1639-2.0114.5884-2.6113 1.441-.7551 1.0644-.8368 2.432-.8294 3.6957 0 1.313.0008 2.6267 0 3.9397 1.3023-.0232 2.6158.0809 3.9062-.1407 1.0121-.1677 2.0478-.6116 2.6411-1.4942.7343-1.0824.8011-2.4523.7892-3.7219V4.3435c-1.2986.024-2.6083-.0824-3.8958.1385zM8.4696 24.3452c1.3713 1.7644 2.7368 3.534 4.1104 5.2977.0512.0793.1396.1542.1255.2612.0007 4.9676 0 9.9359.0007 14.9034H8.4688c0-6.821-.0007-13.6413.0008-20.4623zM45.548 25.7989c5.2709-.012 10.5426-.0015 15.8142-.0052v4.2713c-5.2709-.003-10.5418.0075-15.8127-.0052.0022-1.4201.0059-2.8408-.0015-4.2609zM45.5517 34.3936c5.2701-.0007 10.5403-.0007 15.8105 0 0 1.4223.0007 2.8446-.0007 4.2669H45.5517c-.0008-1.4223 0-2.8446 0-4.2669z"/></g><defs><clipPath id="clip0"><path fill="#fff" d="M0 0h61v45H0z"/></clipPath></defs></svg>