<svg width="70" height="70" fill="none" xmlns="http://www.w3.org/2000/svg"><g clip-path="url(#clip0)" fill="#fff"><path d="M22.874 26.007a2.81 2.81 0 0 0 1.316 3.751l2.496 1.197a2.807 2.807 0 0 0 3.74-1.307l.25-.515.315.149a2.808 2.808 0 0 0 3.738-1.31l3.751-7.751c2.056 1.151 4.208 2.716 5.737 4.774a11.834 11.834 0 0 1 8.913-3.058c-2.57-4.694-6.862-7.88-10.672-9.934l1.663-3.441a2.82 2.82 0 0 0 .125-2.15 2.795 2.795 0 0 0-1.439-1.606l-.294-.142a1.836 1.836 0 0 0-.853-2.447L37.407.18a1.838 1.838 0 0 0-2.449.859l-.32-.153a2.81 2.81 0 0 0-3.74 1.309L21.51 21.613a2.814 2.814 0 0 0-.123 2.148 2.821 2.821 0 0 0 1.437 1.605l.294.14-.243.501zM44.235 42.506c-.483.88-1.05 1.731-1.75 2.516-1.704 1.907-3.982 3.246-6.859 4.015v-2.758h2.335v-2.482c0-1.01-.819-1.826-1.829-1.826H16.427c-1.01 0-1.827.816-1.827 1.826v2.483H18.732v14.31l-.086.038c-4.496 1.806-8.204 5.06-10.478 9.37h36.285c-1.994-3.772-5.087-6.72-8.838-8.623-.086-.047-.173-.083-.259-.13.093.047.18.08.27.13v-2.991c5.576-1.02 10.238-3.457 13.66-7.296a22.59 22.59 0 0 0 3.606-5.521 11.848 11.848 0 0 1-8.656-3.06zM52.222 24.177c-5.294 0-9.606 4.29-9.606 9.567 0 5.274 4.314 9.56 9.606 9.56 5.3 0 9.61-4.286 9.61-9.56 0-5.276-4.305-9.567-9.61-9.567z"/></g><defs><clipPath id="clip0"><path fill="#fff" d="M0 0h70v70H0z"/></clipPath></defs></svg>