<svg width="62" height="62" fill="none" xmlns="http://www.w3.org/2000/svg"><g clip-path="url(#clip0)"><path d="M60.479 30.226c-.379.102-.805.255-1.272.33-.23.057-.473.083-.717.093a2.467 2.467 0 0 1-.71-.009l-.336-.029-.364-.114-.36-.119c-.018-.023-.157-.114-.224-.165-.174-.11-.335-.217-.447-.385-.12-.152-.252-.27-.325-.433a5.499 5.499 0 0 1-.4-.774 6.873 6.873 0 0 1-.085-.186c.183-.123.363-.254.55-.357a5.859 5.859 0 0 1 1.823-.614c1.192-.202 2.224-.143 2.934-.132l1.122.03-1.118-.09c-.71-.048-1.734-.168-2.971-.028a6.133 6.133 0 0 0-1.937.538 9.59 9.59 0 0 0-1.88 1.229c-.603.47-1.182 1.049-1.83 1.47-.65.443-1.249.943-2.004 1.293l-1.08.576c-.267.128-.736.26-1.09.388l-1.133.385-.28.095-.239.053-.54.119a10 10 0 0 1-1.15.16c-.087-.15-.311-.556-.574-1.107-.101-.176-.14-.372-.222-.577-.095-.206-.102-.426-.133-.655l-.023-.174c-.003-.016-.008-.092-.01-.056l.015-.097.067-.39c.014-.291.19-.438.272-.677.271-.423.658-.79 1.06-1.087a16.36 16.36 0 0 1 1.153-.753c.698-.413 1.14-.73 1.14-.73s-.465.279-1.194.632c-.364.182-.788.397-1.226.665-.438.272-.878.616-1.232 1.078-.13.254-.359.527-.386.782l-.098.385-.024.094c-.02.097-.004.086-.008.135l.008.207c.01.275.008.551.09.78.07.234.107.476.195.664.147.387.277.695.37.912-.059 0-.12.008-.18.008-.686-.01-1.568-.368-2.197-.626a5.964 5.964 0 0 1-1.832-1.158c-1.025-.959-1.69-2.28-1.738-3.691-.029-.905.032-1.853.44-2.675 1.018-2.061 3.27-2.586 5.289-3.204l.599.44c.256.162.547.387.916.59.356.22.79.429 1.278.635a7.484 7.484 0 0 0 1.68.422c.308.022.629.02.952.028.335-.045.61-.072 1.008-.142.29-.086.574-.156.877-.259.315-.133.653-.253.95-.412.154-.08.302-.175.454-.264l.576.04c.301.007.631.032.96.078.178.009.335.058.493.11l.248.076.063.018c-.005-.005.054.028.028.009l.12.081c.187.107.249.223.37.339.117.152.235.3.347.445.111.155.275.28.392.378.121.111.287.187.41.267.524.273.87.437.87.437s-.321-.227-.774-.573c-.103-.1-.224-.17-.329-.305-.114-.138-.218-.244-.294-.402-.085-.158-.172-.323-.262-.488-.116-.18-.255-.405-.395-.514l-.13-.126c-.076-.055-.042-.027-.067-.043l-.072-.037-.28-.147a2.254 2.254 0 0 0-.562-.234c-.213-.07-.41-.122-.591-.17.03-.024.064-.042.094-.068.519-.412.998-.86 1.43-1.329.438-.455.856-.95 1.213-1.42.366-.477.72-.907 1.053-1.372.315-.445.585-.899.872-1.255.292-.362.614-.623.944-.84.327-.184.62-.34.882-.426.256-.112.471-.148.616-.188l.22-.057-.226.035c-.145.028-.367.045-.632.134-.275.061-.592.192-.954.359a4.267 4.267 0 0 0-1.068.79c-.342.358-.64.769-.995 1.186-.34.393-.757.819-1.156 1.253-.407.443-.823.851-1.292 1.26-.455.41-.943.788-1.452 1.123-.277.186-.564.35-.885.515-.23.116-.462.228-.695.326-.268.112-.527.172-.78.263-.283.068-.593.116-.883.174l-.734.028-.723-.09a6.069 6.069 0 0 1-1.261-.444 8.24 8.24 0 0 1-.996-.62 4.93 4.93 0 0 1-.414-.31 12.527 12.527 0 0 0 1.892-.936c1.064-.651 1.965-1.706 2.524-2.735a8.238 8.238 0 0 0 1.01-3.528 8.454 8.454 0 0 0-.264-2.592l.082.118.935-.774c.283-.23.604-.52.97-.755.366-.252.756-.52 1.145-.79.159-.118.423-.21.625-.314.217-.115.428-.194.638-.244.412-.14.825-.216 1.184-.268a13.066 13.066 0 0 1 1.202-.124s-.483-.046-1.216-.04a6.738 6.738 0 0 0-1.267.107 3.11 3.11 0 0 0-.699.161c-.233.084-.446.118-.705.243l-1.306.656c-.433.204-.778.44-1.09.63-.352.216-.624.384-.805.497-.31-.962-.827-1.93-1.183-2.756a10.996 10.996 0 0 1-.534-1.28c-.155-.43-.316-.798-.397-1.22-.187-.782-.074-1.533.301-2.03a3.23 3.23 0 0 1 1.363-1.03c.905-.364 1.492-.378 1.481-.411.002.038-.571-.003-1.53.287a3.47 3.47 0 0 0-1.523.954c-.522.555-.706 1.448-.576 2.324.041.416.184.877.303 1.314.111.456.26.912.434 1.365.315.959.702 1.794.937 2.85.313.976.356 1.995.22 3.006a6.834 6.834 0 0 1-1.059 2.8c-.016.025-.035.047-.053.072-.05-.13-.1-.26-.159-.408-.17-.407-.349-.884-.63-1.368-.14-.243-.241-.509-.436-.737-.175-.233-.354-.472-.53-.71l-.5-.66a2.346 2.346 0 0 1-.406-.68c-.098-.233-.238-.445-.296-.677l-.164-.657c-.118-.408-.096-.77-.136-1.015-.023-.247-.038-.39-.038-.39l-.008.392c.011.249-.052.611.016 1.037l.091.695c.03.25.15.496.23.764.081.275.191.542.347.77.147.248.294.502.442.754.136.235.273.472.408.702.15.219.217.487.318.72.206.467.32.945.434 1.34.118.437.206.79.264 1.035-.4.403-.836.741-1.344 1-.878.436-1.83.74-2.832.953-1.586.34-3.2.652-4.726 1.205-2.064.748-4.386 3.177-6.74 2.248-.423-.166-1.165-.595-1.387-1.012-.417-.775-.413-1.7-.322-2.552.04-.387.102-.774.185-1.155.046-.219.194-1.33.388-1.42l1.721-.81c.541-.256 1.172-.554 1.849-.87.347-.166.706-.337 1.072-.51.059-.037.12-.067.18-.1.16.009.372.023.629.041.284.011.601.042.933.09.173.014.332.069.5.112.184.049.324.077.492.177.332.156.56.387.79.659.222.26.4.538.565.767.324.463.589.729.589.729s-.233-.295-.495-.79c-.136-.244-.279-.54-.479-.841-.182-.29-.465-.632-.793-.832-.143-.113-.36-.204-.529-.268-.179-.07-.358-.153-.534-.186-.304-.084-.582-.144-.818-.195.715-.534 1.217-1.134 1.748-1.656l.195-.197.195-.146.422-.316c.275-.196.57-.26.83-.39.27-.103.544-.143.776-.207.233-.064.444-.085.615-.114l.541-.085-.548.024c-.174.01-.387.007-.629.044-.242.04-.519.047-.818.123-.285.101-.65.161-.95.33-.148.088-.3.175-.454.266l-.259.156-.215.175c-.586.465-1.196 1.019-1.806 1.375-.28.211-.708.33-1.049.498l-1.058.36-1.933.659-.64.218c.483-1.14 1.057-2.328 1.58-3.53.375-.813.738-1.68 1.058-2.492.322-.806.679-1.552 1.167-2.137.506-.6 1.047-.944 1.838-1.17.727-.25 1.429-.484 2.058-.784.633-.308 1.138-.663 1.592-.968.454-.31.856-.566 1.194-.76l1.06-.641-1.117.532c-.362.162-.79.378-1.27.641-.484.26-1.025.564-1.633.787-.614.221-1.319.382-2.075.562-.557.083-1.264.362-1.844.788l-.923-.877-1.157-1.098c-.216-.202-.436-.4-.6-.65-.18-.24-.364-.481-.549-.725L30.86 1.602c-.234-.234-.46-.388-.676-.568a148.35 148.35 0 0 0-.66-.384L28.116-.01l1.324.805c.186.135.385.283.596.438.175.184.394.38.552.572.307.496.633 1.027.96 1.559l.335.553c-.102.038-.217.078-.344.124-.244.081-.555.231-.843.291l-.465.13c-.175.017-.358.013-.54.021l-.27.007c-.038-.015-.152-.037-.225-.057-.161-.048-.336-.059-.483-.14a6.517 6.517 0 0 1-.825-.398l-.796-.43.737.525c.217.167.486.337.79.51.143.1.326.139.498.211.098.035.154.064.29.102l.27.026c.18.014.359.039.538.044l.56-.07c.386-.039.663-.143.943-.197l.53-.121c.106.142.217.277.327.402L33.6 6.108l.862 1.016a9.91 9.91 0 0 0-1.281 1.922 47.733 47.733 0 0 1-1.277 2.334c-.878 1.568-1.84 3.073-2.602 4.68a16.83 16.83 0 0 0-.926 2.428c-.095.422-.216.801-.276 1.23-.01.096-.022.192-.033.287l-.14-.199a21.911 21.911 0 0 1-1.298-2.065 17.55 17.55 0 0 1-1.06-2.202 9.835 9.835 0 0 1-.389-1.06c-.099-.342-.23-.664-.282-.971-.145-.607-.242-1.128-.26-1.5-.04-.366-.061-.576-.061-.576v.582c-.016.37.024.893.11 1.533.022.323.117.654.184 1.016.064.363.17.735.284 1.12.214.773.51 1.58.854 2.365.331.792.722 1.56 1.118 2.263l.79 1.435c-.174.21-.3.445-.424.692-.778 1.545-1.632 3.76-3.764 3.637-1.788-.105-3.171-2.052-3.91-3.502a12.055 12.055 0 0 1-.92-2.35c-.071-.242-.126-.499-.186-.75.056-.162.138-.382.248-.612.05-.125.128-.225.21-.34.01-.064.24-.216.358-.328l.947-.765a8.07 8.07 0 0 0 .751-.955c.221-.296.426-.58.674-.73.233-.164.481-.244.654-.252l.275-.032-.278-.013a1.434 1.434 0 0 0-.733.153c-.303.122-.573.388-.85.653a7.101 7.101 0 0 1-.86.787c-.328.178-.694.375-1.018.571-.178.12-.292.132-.505.335-.06.057-.1.114-.154.171-.201-1.162-.342-2.381-.47-3.632-.117-1.026-.273-2.106-.686-3.123a5.764 5.764 0 0 0-.59-1.081l.1.03.111-.466a8.05 8.05 0 0 1 .351-1.115c.108-.19.212-.45.367-.618.191-.23.395-.47.603-.72.437-.435.942-.91 1.42-1.427.474-.542.91-1.117 1.221-1.71.126-.297.329-.605.372-.898.085-.286.14-.567.146-.842.05-.538.002-.967-.005-1.272l-.024-.48-.022.479c-.026.3-.023.745-.123 1.24a3.084 3.084 0 0 1-.223.794c-.079.301-.275.504-.429.794-.352.529-.815 1.024-1.305 1.48-.316.28-.65.542-.982.807-.096-.152-.208-.336-.346-.56l-.285-.46c-.118-.158-.166-.355-.25-.547-.158-.389-.325-.805-.492-1.222-.1-.44-.202-.876-.297-1.289-.116-.41-.137-.813-.174-1.154l-.116-1.136.005 1.143c.003.343-.016.744.062 1.171.055.432.114.892.175 1.353l.384 1.313c.07.208.102.423.206.598l.25.51.351.714c-.031.025-.062.051-.095.076l-.676.656c-.27.255-.403.524-.573.77a7.81 7.81 0 0 0-.48 1.078 7.029 7.029 0 0 0-.622-.498c-.412-.281-.836-.525-1.196-.756-.377-.258-.747-.512-1.106-.76a51.324 51.324 0 0 1-1.996-1.412c-.61-.45-1.138-.896-1.606-1.293-.417-.44-.824-.793-1.096-1.144l-.81-1.14.706 1.206c.24.373.618.77 1.014 1.262.436.445.936.949 1.511 1.454.509.457 1.09.946 1.687 1.435-.105.023-.214.05-.338.078-.606.1-1.354.424-2.111.684C8.473 9.13 7.088 9.9 7.088 9.9s1.477-.615 2.98-1.077c.771-.17 1.52-.403 2.107-.43.469-.055.796-.093.906-.107l.559.462 1.106.842c.336.283.662.626.868.94.287.443.448.81.574 1.225.268.868.332 1.832.354 2.827.03 2.015.07 4.114.463 6.09.177.99.478 1.948.84 2.84.225.44.371.858.66 1.284.068.11.133.211.197.317l-.41.082c-.322.065-.7.156-1.119.166l-1.308.096c-1.795.014-3.619-.094-3.619-.094s1.77.373 3.594.629l1.353.1c.434.053.843.016 1.195 0 .413-.02.73-.038.935-.047.665.813 1.548 1.423 2.058 2.363.806 1.48 1.15 3.636.41 5.204-.253.53-.64.977-1.116 1.32-.428.312-1.133.903-1.709.747-.437-.118-.883-.24-1.366-.369l-.636-.974c-.176-.303-.429-.648-.617-1.04-.1-.196-.2-.399-.304-.605-.116-.206-.145-.434-.225-.652-.062-.23-.157-.432-.184-.674l-.12-.689c-.08-.445-.153-.861-.172-1.219l-.108-1.201-.026 1.209c-.02.367.008.79.038 1.24l.043.697c0 .235.075.492.113.734.057.241.07.505.165.73.085.23.169.456.248.675.16.443.37.811.521 1.15l.162.32a88.046 88.046 0 0 0-.554-.15c-.671-.15-1.288-.416-1.933-.664l-.977-.377c-.295-.15-.632-.338-.927-.519-.57-.38-1.144-.8-1.589-1.321-.476-.45-.79-1.141-1.177-1.677-.72-1.137-1.23-2.293-2.007-3.105-.367-.417-.863-.636-1.252-.804-.396-.169-.685-.44-.79-.736-.195-.593-.134-.972-.155-.967.023-.002-.058.367.112.984.091.31.388.618.793.809.398.197.829.409 1.167.828.697.79 1.179 2.001 1.846 3.173.376.574.609 1.208 1.134 1.78.034.042.078.075.113.116l-.235.157a5.42 5.42 0 0 0-.987 1.096c-.346.476-.684 1.07-1.106 1.59a2.634 2.634 0 0 1-.359.39 1.46 1.46 0 0 1-.41.325c-.295.2-.6.401-.963.485-.34.146-.712.172-1.079.215-.363.053-.731-.005-1.085 0a17.687 17.687 0 0 1-1.93-.296c-1.126-.24-1.88-.37-1.88-.37s.746.176 1.856.479c.557.147 1.211.302 1.93.411.363.017.736.099 1.123.065.032-.001.065-.006.098-.006-.056.374-.203 1.359-.35 2.355-.015.15-.084.296-.123.443-.042.147-.09.29-.162.418a4.13 4.13 0 0 1-.395.7c-.267.39-.475.631-.475.631s.222-.224.52-.596c.312-.366.623-.933.808-1.56.242-1.1.485-2.194.534-2.415.24-.018.478-.05.712-.133.401-.071.752-.267 1.097-.474.172-.08.357-.212.483-.34.14-.116.277-.24.403-.391.518-.569.877-1.131 1.234-1.563.345-.443.674-.735.918-.912.151-.09.248-.148.315-.186.325.306.67.592 1.036.86.309.209.595.387.93.579l1.002.445c.665.292 1.322.604 1.967.78 1.012.323 2.035.622 3.038.97.893.31 1.616.919 2.362 1.477.58.435 1.117.939 1.463 1.583.742 1.38.568 3.14-.295 4.422a6.02 6.02 0 0 1-1.012 1.126c-.257.227-.556.403-.83.61-.187.139-.372.416-.567.52a5.966 5.966 0 0 0-.457.273l-.996-.308c-.374-.134-.808-.293-1.23-.527a4.117 4.117 0 0 1-1.159-.915c-.173-.182-.308-.447-.461-.663l-.265-.685c-.091-.228-.075-.477-.117-.702-.044-.228-.02-.447-.014-.653.009-.407.053-.75.082-.99l.043-.375-.089.368c-.057.235-.142.565-.202.98-.033.209-.084.43-.068.675.014.24-.033.506.033.768.07.268.124.521.219.83.132.242.215.49.39.735a4.66 4.66 0 0 0 1.215 1.242c.447.325.897.553 1.28.742.13.06.242.11.357.16l-.215.163c-.639.508-1.224 1.053-1.82 1.555-.294.26-.6.496-.91.72-.302.246-.643.407-.964.614-.347.117-.628.333-1.043.387l-.581.126-.547.033a5.13 5.13 0 0 1-1.166-.008l-.593-.047c-.167-.025-.364-.087-.547-.129-.739-.215-1.462-.59-2.222-.824l-1.17-.256-1.178-.165 1.164.238 1.136.326c.74.281 1.411.689 2.178.967.044.017.09.024.136.04l-.522.813-.665.954c-.114.19-.261.288-.414.461l-.502.457c-.164.172-.357.33-.468.521l-.187.273-.127.323a1.938 1.938 0 0 0-.164.602c-.03.199-.073.38-.06.555-.028.69.114 1.127.09 1.13.024.002-.083-.456 0-1.126 0-.168.057-.344.099-.531.031-.189.104-.376.203-.56l.125-.272.209-.257c.13-.19.315-.303.47-.446l.535-.416c.156-.146.382-.302.498-.473l.735-.898.686-.903-.107-.083c.21.046.42.077.62.1.387.074.79.096 1.204.085l.64-.004.588-.09c.386-.023.803-.238 1.207-.36.261-.145.536-.278.79-.415-.057.159-.144.313-.185.506l-.087.629c-.006.205.05.397.072.603.022.116.014.173.061.338l.1.298.196.59c.072.195.111.39.208.57.106.16.184.33.239.504.04.14.012.326-.011.468-.069.3-.177.542-.239.714-.06.17-.097.268-.097.268l.122-.259c.075-.168.2-.394.3-.7.036-.154.088-.327.054-.526a2.111 2.111 0 0 0-.2-.533c-.073-.17-.1-.382-.155-.577l-.145-.609-.074-.303c-.012-.033-.013-.188-.02-.275-.006-.201-.044-.414-.02-.595.043-.167.081-.329.119-.481.044-.154.14-.296.2-.426.116-.263.288-.473.38-.623.098-.149.156-.232.156-.233.104-.075.219-.144.319-.221.646-.48 1.259-.98 1.89-1.42.332-.221.608-.414.965-.607.344-.208.692-.404 1.012-.486.322-.13.62-.235 1.041-.282l1.173-.2.067-.013c.419.02.852.043 1.27.096 1.339.17 2.433.582 3.775 1.424 2.835 1.779 3.267 5.423 3.649 8.637.036.312.073.621.111.922.013.095.043.405.085.816.352 3.504.36 3.504.58 3.504h3.188l.11-1.506c.06-.852.116-1.706.172-2.557.074-1.14.132-2.28.189-3.42.104-2.077.029-4.157.348-6.222.188-1.226.52-2.703 1.29-3.711.302-.394.8-.771 1.301-.859.56-.099 1.11.244 1.646.355a7.39 7.39 0 0 0 2.067.126c.7-.037 1.393-.195 2.052-.412l.053-.02c.302.2.763.497 1.4.858.252.137.547.273.859.398.083.175.202.427.338.734.127.295.29.64.392 1.024.051.192.143.387.154.594l.087.628c.003.177-.032.429-.045.634-.006.223-.064.42-.118.613-.093.387-.215.76-.32 1.075-.193.637-.288 1.069-.288 1.069s.14-.422.392-1.031c.135-.303.292-.653.436-1.063.078-.2.159-.409.184-.622.038-.226.09-.412.116-.671l-.026-.688c.009-.234-.063-.443-.1-.654-.072-.429-.203-.802-.303-1.127-.033-.104-.064-.188-.095-.279.16.043.304.1.474.129.758.128 1.661.16 2.474.122 1.665-.047 3.273-.445 4.419-.06.572.17 1.026.414 1.335.587l.486.28-.45-.336a6.748 6.748 0 0 0-1.291-.757c-.574-.259-1.335-.371-2.106-.388-.775-.02-1.584-.011-2.385-.064-.819-.053-1.55-.153-2.286-.356-.66-.179-1.235-.502-1.706-.827-.22-.157-.419-.305-.6-.445.098-.046.192-.093.296-.145.567-.31 1.14-.614 1.63-.91.505-.303.992-.583 1.457-.829l.667-.356c.236-.11.457-.2.656-.25.4-.133.845-.154 1.157-.116.394.08.624.236.835.408.403.356.614.593.614.593s-.163-.263-.515-.694a2.012 2.012 0 0 0-.83-.591 3.123 3.123 0 0 0-1.372-.1c-.515.045-.987.226-1.513.409-.522.174-1.058.374-1.601.588-.558.222-1.096.4-1.644.599-.534.17-1.247.357-1.732.453-.55.08-1.1.115-1.629.052-2.16-.18-5.333-2.175-3.695-4.67.768-1.172 2.044-2.004 3.342-2.462a8.888 8.888 0 0 1 1.606-.425c.572-.088 1.151-.141 1.711-.286l.582-.163c.112-.034.164-.04.326-.099l.106-.042c.062.042.114.078.2.14.298.2.75.495 1.32.73.567.26 1.261.456 1.988.643a15.03 15.03 0 0 1 2.193.746c.716.316 1.4.726 1.897 1.262a4.9 4.9 0 0 1 .61.861c.157.3.276.597.374.88.178.567.24 1.063.28 1.411l.034.548-.004-.55a7.32 7.32 0 0 0-.208-1.44c-.152-.576-.437-1.267-.922-1.854-.053-.062-.129-.108-.186-.17.1-.027.278-.08.519-.164.372-.13.848-.35 1.267-.663.19-.18.392-.344.522-.555.16-.186.23-.407.313-.58.075-.175.083-.34.115-.445.022-.109.037-.17.037-.17l-.051.167c-.041.102-.063.262-.152.427-.098.161-.18.366-.351.531-.138.189-.347.33-.537.48-.422.26-.889.428-1.244.518a8.17 8.17 0 0 1-.616.135l.053.206a6.463 6.463 0 0 0-1.602-1.145 15.636 15.636 0 0 0-2.206-.889c-.714-.223-1.363-.442-1.87-.716-.45-.222-.77-.451-1.026-.644l.529-.211c.388-.171.71-.256 1.162-.498l1.047-.634c.715-.378 1.359-.956 2.01-1.454.673-.5 1.186-1.08 1.766-1.584.091-.084.187-.153.28-.232.116.19.3.473.603.844.117.18.319.332.502.502.173.186.416.313.674.433.145.064.212.12.423.188l.372.067c.239.063.52.08.821.057.299.006.57-.033.826-.103.263-.047.513-.111.746-.204.48-.149.888-.363 1.242-.513.357-.157.62-.374.816-.483l.3-.191-.325.147c-.217.08-.487.25-.86.356zm-28.532 5.537c-.472 3.363-1.577 5.987-2.467 5.864-.892-.126-1.234-2.952-.764-6.315.47-3.362 1.575-5.986 2.466-5.861.893.124 1.236 2.95.765 6.312z" fill="#FF5A5A"/></g><defs><clipPath id="clip0"><path fill="#fff" d="M0 0h62v62H0z"/></clipPath></defs></svg>