<svg width="50" height="50" fill="none" xmlns="http://www.w3.org/2000/svg"><path fill-rule="evenodd" clip-rule="evenodd" d="M50 25c0 13.807-11.193 25-25 25S0 38.807 0 25 11.193 0 25 0s25 11.193 25 25zM21.347 39.407c-7.2-4.728-5.708-7.193-3.636-10.607l.009-.014c.995-1.646 2.028-3.356 2.028-5.379 0-2.678-1.372-5-3.96-6.8A14.227 14.227 0 0 0 12.03 14.8a1.403 1.403 0 0 0-1.687.352 1.433 1.433 0 0 0-.326 1.163 1.438 1.438 0 0 0 .674.999c.178.107.377.172.583.193 1.066.344 2.078.84 3.006 1.471 1.775 1.23 2.673 2.722 2.673 4.43 0 1.233-.79 2.54-1.624 3.916l-.002.004c-2.122 3.472-4.952 8.215 4.498 14.443.224.151.488.23.757.229.295-.011.58-.116.813-.299a1.441 1.441 0 0 0-.05-2.294zm14.201-13.99c1.953 1.25 2.978 2.464 3.24 3.807.323 1.639-.61 2.967-1.516 4.259l-.02.027a7.496 7.496 0 0 0-1.633 3.442 1.433 1.433 0 0 1-.472.897c-.26.23-.596.356-.943.353h-.155a1.412 1.412 0 0 1-.904-.534 1.438 1.438 0 0 1-.292-1.016 10.14 10.14 0 0 1 2.165-4.785l.026-.038c.585-.836 1.132-1.62 1.042-2.105-.057-.293-.39-.936-1.995-1.965-4.64-2.964-6.054-5.22-6.762-10.478-.523-4.029-2.475-6.464-6.012-7.429a1.405 1.405 0 0 1-1.039-.598 1.438 1.438 0 0 1 .55-2.117 1.403 1.403 0 0 1 1.196-.006c4.584 1.264 7.364 4.643 8.035 9.814.58 4.443 1.557 5.943 5.49 8.472z" fill="#83CB6F"/></svg>