<svg width="30" height="30" fill="none" xmlns="http://www.w3.org/2000/svg"><path d="M12.9474 8.1184H6.4421v2.2833h6.5053V8.1184zM23.9368 20.296H6.4421v2.2833h17.4947V20.296z" fill="#E5E5E5"/><path d="M28.6421 0H1.3579C.6 0 0 .6025 0 1.3636v27.2728C0 29.3975.6 30 1.3579 30H28.642C29.4 30 30 29.3975 30 28.6364V1.3636C30 .6026 29.4 0 28.6421 0zm-1.6105 26.8605H2.9684V3.1713H27v23.6892h.0316z" fill="#E5E5E5"/><path d="M12.9474 14.2072H6.4421v2.2833h6.5053v-2.2833zM19.7368 16.7442c2.4068 0 4.3579-1.9594 4.3579-4.3763 0-2.417-1.9511-4.3764-4.3579-4.3764-2.4068 0-4.3579 1.9594-4.3579 4.3764 0 2.4169 1.9511 4.3763 4.3579 4.3763z" fill="#E5E5E5"/></svg>