<svg width="50" height="53" fill="none" xmlns="http://www.w3.org/2000/svg"><path d="M49.3809 17.7028l-.8652-4.331-4.5425.1624c-1.7846 0-10.7073-.3248-14.7091-6.767L24.9379 0l-4.3802 6.8213C16.6641 13.2094 7.6873 13.48 5.9568 13.48l-4.5966-.1624-.8652 4.3309c-.054.9204-1.352 8.4454.4867 17.3238 1.1356 5.522 3.6772 12.235 9.085 18.0276v-2.382h2.8661c-4.9751-5.2513-7.3005-11.3688-8.328-16.4035-1.7304-8.1747-.5407-15.05-.3785-15.808l.2163-1.2451 1.5142.0541c2.109 0 12.8163-.3789 17.7914-8.3912l1.2438-1.949 1.1897 1.8949c4.9751 8.0664 15.6825 8.4453 17.8455 8.4453l1.4601-.0541.2163 1.2451c.1623.758 1.352 7.5251-.3785 15.808-1.0275 4.9806-3.3528 11.0981-8.3279 16.4035h3.0283v2.2737c5.3537-5.7926 7.8412-12.5056 8.9769-17.9734 1.8927-8.9867.5407-16.4035.3785-17.2155z" fill="#FF8500"/><path d="M23.9325 32.4291h3.0213c2.8605 0 2.8605-3.8937 0-3.8937h-3.0213v3.8937z" fill="#FF8500"/><path fill-rule="evenodd" clip-rule="evenodd" d="M37.4839 22.5209l.3244 1.57c.1082.4331.8112 4.4392-.2163 9.4198-.9734 4.7641-3.8395 11.0981-11.8429 14.617l-.7571.3248-.7571-.379c-8.0034-3.5189-10.8695-9.907-11.8429-14.6169-1.0275-4.8182-.3245-8.9326-.2163-9.3657l.3244-1.57 1.7305.0542c1.0816 0 6.7056-.2166 9.1932-4.2768l1.5682-2.4903 1.5682 2.4361c2.4876 4.1144 8.1116 4.331 9.1932 4.331l1.7305-.0542zM23.9325 37.0703v2.8658c0 1.0279-2.2177 1.0279-2.2177.0311v-2.8657h-.3857c-1.0285 0-1.0285-1.9001 0-1.9001h.3857v-.8722h-.3857c-1.0285 0-1.0285-1.9001 0-1.9001h.3857v-5.0462c0-.4049.3535-.7476.7713-.7476h4.7891c5.4639 0 5.4639 7.6627 0 7.6627h-3.3427v.8722h3.3748c1.0285 0 1.0285 1.9001 0 1.9001h-3.3748z" fill="#FF8500"/></svg>