<svg width="40" height="50" fill="none" xmlns="http://www.w3.org/2000/svg"><path d="M37.9474 8.7895c-5.7895-.4737-11.2106-2.9474-15.3158-7.0527L21.5789.6316C21.1579.2106 20.5789 0 20 0s-1.1579.2105-1.5789.6316l-1.0527 1.1052c-4.1052 4.1053-9.5263 6.579-15.3158 7.0527C.8947 8.8947 0 9.842 0 11v6.3684c0 13.3684 7.2632 25.7895 18.8947 32.3684.3158.2106.7369.2632 1.1053.2632.3684 0 .7368-.1053 1.1053-.2632C32.7368 43.1579 40 30.7368 40 17.3684V11c0-1.1579-.8947-2.1053-2.0526-2.2105zm-7.1579 11l-11.579 13.0526c-.3684.4211-1 .4211-1.3684 0L10.3684 25c-.3684-.3684-.3684-.9474 0-1.3158l1.8421-1.8421c.3684-.3684.8948-.3684 1.2632-.0526l4.1579 3.6316c.3684.3157.9473.3157 1.3158-.0527l8.4737-8.6316c.3684-.3684.9473-.3684 1.3157-.0526l1.8948 1.7369c.4737.421.4737 1 .1579 1.3684z" fill="#64BE4B"/></svg>