<svg width="138" height="138" viewBox="0 0 138 138" fill="none" xmlns="http://www.w3.org/2000/svg"><g filter="url(#filter0_d)"><circle cx="69" cy="65" r="65" fill="#fff"/><circle cx="69" cy="65" r="63" stroke="#A898D5" stroke-width="4"/></g><path fill-rule="evenodd" clip-rule="evenodd" d="M61.0416 91.6969V79.4812H75.0832C79.3626 79.4812 79.3626 71.3816 75.0832 71.3816H61.0416V67.6638H74.9495C97.6835 67.6638 97.6835 35 74.9495 35H55.0238C53.2853 35 51.8143 36.4606 51.8143 38.1867V59.697H50.2095C45.9302 59.697 45.9302 67.7966 50.2095 67.7966H51.8143V71.5144H50.2095C45.9302 71.5144 45.9302 79.614 50.2095 79.614H51.8143V91.8297C51.8143 96.0786 61.0416 96.0786 61.0416 91.6969ZM73.6122 59.697H61.0416V43.0996H73.6122C85.5141 43.0996 85.5141 59.697 73.6122 59.697Z" fill="#A898D5"/><path d="M30.8162 103.184C29.2542 101.622 29.2542 99.0891 30.8162 97.527L101.527 26.8164C103.089 25.2543 105.622 25.2543 107.184 26.8164C108.746 28.3785 108.746 30.9111 107.184 32.4732L36.4731 103.184C34.911 104.746 32.3783 104.746 30.8162 103.184Z" fill="#A898D5" stroke="#fff" stroke-width="2"/><defs><filter id="filter0_d" x="0" y="0" width="138" height="138" filterUnits="userSpaceOnUse" color-interpolation-filters="sRGB"><feFlood flood-opacity="0" result="BackgroundImageFix"/><feColorMatrix in="SourceAlpha" values="0 0 0 0 0 0 0 0 0 0 0 0 0 0 0 0 0 0 127 0"/><feOffset dy="4"/><feGaussianBlur stdDeviation="2"/><feColorMatrix values="0 0 0 0 0 0 0 0 0 0 0 0 0 0 0 0 0 0 0.1 0"/><feBlend in2="BackgroundImageFix" result="effect1_dropShadow"/><feBlend in="SourceGraphic" in2="effect1_dropShadow" result="shape"/></filter></defs></svg>