<svg width="138" height="138" viewBox="0 0 138 138" fill="none" xmlns="http://www.w3.org/2000/svg"><g filter="url(#filter0_d)"><circle cx="69" cy="65" r="65" fill="#fff"/><circle cx="69" cy="65" r="63" stroke="#A898D5" stroke-width="4"/></g><path d="M108.009 50.3912L106.625 43.4454L99.3571 43.7058C96.5018 43.7058 82.2254 43.1849 75.8226 32.8529L68.9007 22L61.8923 32.9397C55.6626 43.1849 41.2996 43.619 38.5309 43.619L31.1764 43.3585L29.792 50.3044C29.7055 51.7804 27.6289 63.8488 30.5707 78.0878C32.3877 86.9438 36.4543 97.7099 45.1067 107V103.18H49.6924C41.7323 94.7579 38.0117 84.9469 36.3678 76.8723C33.599 63.762 35.5025 52.7354 35.7621 51.5199L36.1082 49.523L38.5309 49.6098C41.9053 49.6098 59.037 49.002 66.9972 36.1522L68.9872 33.0266L70.8908 36.0654C78.8509 49.002 95.9826 49.6098 99.4436 49.6098L101.78 49.523L102.126 51.5199C102.385 52.7354 104.289 63.5884 101.52 76.8723C99.8762 84.8601 96.1557 94.6711 88.1955 103.18H93.0408V106.826C101.607 97.5363 105.587 86.7702 107.404 78.001C110.432 63.5884 108.269 51.6936 108.009 50.3912Z" fill="#A898D5"/><path d="M67.292 74.0089H72.126C76.7029 74.0089 76.7029 67.7644 72.126 67.7644H67.292V74.0089Z" fill="#A898D5"/><path fill-rule="evenodd" clip-rule="evenodd" d="M88.9742 58.1185L89.4933 60.6364C89.6664 61.331 90.7912 67.7559 89.1472 75.7436C87.5898 83.3841 83.0041 93.5424 70.1985 99.1859L68.9872 99.7068L67.7759 99.0991C54.9704 93.4556 50.3846 83.2104 48.8272 75.6568C47.1832 67.9295 48.308 61.331 48.4811 60.6364L49.0002 58.1185L51.769 58.2053C53.4995 58.2053 62.4979 57.858 66.478 51.3463L68.9872 47.3524L71.4964 51.2595C75.4765 57.858 84.475 58.2053 86.2054 58.2053L88.9742 58.1185ZM67.292 81.4524V86.0484C67.292 87.6969 63.7436 87.6969 63.7436 86.0983V81.5024H63.1265C61.4809 81.5024 61.4809 78.455 63.1265 78.455H63.7436V77.0563H63.1265C61.4809 77.0563 61.4809 74.0089 63.1265 74.0089H63.7436V65.916C63.7436 65.2666 64.3093 64.7171 64.9778 64.7171H72.6403C81.3826 64.7171 81.3826 77.0063 72.6403 77.0063H67.292V78.4051H72.6917C74.3373 78.4051 74.3373 81.4524 72.6917 81.4524H67.292Z" fill="#A898D5"/><defs><filter id="filter0_d" x="0" y="0" width="138" height="138" filterUnits="userSpaceOnUse" color-interpolation-filters="sRGB"><feFlood flood-opacity="0" result="BackgroundImageFix"/><feColorMatrix in="SourceAlpha" values="0 0 0 0 0 0 0 0 0 0 0 0 0 0 0 0 0 0 127 0"/><feOffset dy="4"/><feGaussianBlur stdDeviation="2"/><feColorMatrix values="0 0 0 0 0 0 0 0 0 0 0 0 0 0 0 0 0 0 0.1 0"/><feBlend in2="BackgroundImageFix" result="effect1_dropShadow"/><feBlend in="SourceGraphic" in2="effect1_dropShadow" result="shape"/></filter></defs></svg>