<svg width="138" height="138" viewBox="0 0 138 138" fill="none" xmlns="http://www.w3.org/2000/svg"><g filter="url(#filter0_d)"><circle cx="69" cy="65" r="65" fill="#fff"/><circle cx="69" cy="65" r="63" stroke="#A898D5" stroke-width="4"/></g><path fill-rule="evenodd" clip-rule="evenodd" d="M48.95 103C59.9585 103 68.9 94.0422 68.9 83.0136C68.9 71.982 59.963 63.0272 48.95 63.0272C37.9385 63.0272 29 71.982 29 83.0136C29 94.0407 37.9445 103 48.95 103ZM50.927 82.0037L50.4575 71.5552H47.222L46.6595 83.7424L55.2245 91.3177L57.524 89.0125L50.927 82.0037ZM53.237 55.1724H71.66V50.8565H53.237V55.1724ZM85.1675 43.8192H68.2025L79.127 34.3159H96.0935L85.1675 43.8192ZM88.115 89.277V46.9509L99.692 36.881V78.2514L88.115 89.277ZM72.5795 34.3159L61.655 43.8192H43.6775L55.6145 34.3159H72.5795ZM41.09 48.1335H83.807V90.8879H69.473C68.894 92.4012 68.1485 93.8483 67.2455 95.2023H88.115L104 80.2005V30H54.026L36.7835 43.8192V64.6802C38.1365 63.777 39.581 63.0317 41.09 62.4501V48.1335ZM50.8505 67.4557C57.9785 68.3183 63.6155 73.9686 64.4795 81.1096H62.72V84.9175H64.4795C63.6185 92.0601 57.98 97.7074 50.852 98.5699V96.7877H47.051V98.5699C39.9215 97.7074 34.2845 92.0571 33.4235 84.916H35.1275V81.1081H33.422C34.286 73.9716 39.9245 68.3183 47.0495 67.4557V69.1027H50.8505V67.4557Z" fill="#A898D5" stroke="#A898D5"/><defs><filter id="filter0_d" x="0" y="0" width="138" height="138" filterUnits="userSpaceOnUse" color-interpolation-filters="sRGB"><feFlood flood-opacity="0" result="BackgroundImageFix"/><feColorMatrix in="SourceAlpha" values="0 0 0 0 0 0 0 0 0 0 0 0 0 0 0 0 0 0 127 0"/><feOffset dy="4"/><feGaussianBlur stdDeviation="2"/><feColorMatrix values="0 0 0 0 0 0 0 0 0 0 0 0 0 0 0 0 0 0 0.1 0"/><feBlend in2="BackgroundImageFix" result="effect1_dropShadow"/><feBlend in="SourceGraphic" in2="effect1_dropShadow" result="shape"/></filter></defs></svg>