<svg width="25" height="65" viewBox="0 0 25 65" fill="none" xmlns="http://www.w3.org/2000/svg"><g clip-path="url(#clip0)" fill="#FF5A5A"><path d="M12.673 11.2118C15.7448 11.2118 18.2349 8.70196 18.2349 5.60591C18.2349 2.50985 15.7448 0 12.673 0C9.60119 0 7.11102 2.50985 7.11102 5.60591C7.11102 8.70196 9.60119 11.2118 12.673 11.2118Z"/><path d="M20.1357 12.6309H12.6728H12.6024H5.06912C5.06912 12.6309 0 12.6309 0 18.5916C0 24.7652 0 35.6222 0 35.6222C0 35.6222 0 38.1768 2.46416 38.1768C4.92831 38.1768 4.92831 35.6222 4.92831 35.6222V20.4366H5.77316V61.8777C5.77316 61.8777 5.84357 65 8.87096 65C12.0392 65 11.9688 61.8777 11.9688 61.8777V37.822H12.4616H12.532H13.0248V61.8067C13.0248 61.8067 12.9544 64.929 16.1226 64.929C19.2204 64.929 19.2204 61.8067 19.2204 61.8067V20.4366H20.0653V35.6931C20.0653 35.6931 20.0653 38.2477 22.5294 38.2477C24.9936 38.2477 24.9936 35.6931 24.9936 35.6931C24.9936 35.6931 24.9936 24.8361 24.9936 18.6625C25.2048 12.6309 20.1357 12.6309 20.1357 12.6309Z"/></g><defs><clipPath id="clip0"><path fill="#fff" d="M0 0H25V65H0z"/></clipPath></defs></svg>