<svg width="30" height="65" viewBox="0 0 30 65" fill="none" xmlns="http://www.w3.org/2000/svg"><g clip-path="url(#clip0)" fill="#FF5A5A"><path d="M9.69655 48.1083L15.3632 37.9333L16.5497 37.5771L14.7125 46.9751C14.5738 47.6838 14.6555 48.3965 14.951 49.0576L21.1363 62.8882C21.7278 64.2111 23.0472 64.9998 24.4313 64.9998C24.9137 64.9998 25.4042 64.9041 25.8746 64.7014C27.6928 63.9184 28.5208 61.837 27.7228 60.0528L21.9862 47.2263L24.4612 34.5676C24.4908 34.4155 24.5064 34.2645 24.5159 34.114C24.6209 33.7316 24.6234 33.3169 24.4969 32.9102L22.5273 26.5951C22.1597 26.6392 21.8176 26.6513 21.5204 26.653H21.5172H21.5141C19.8538 26.6454 17.9608 26.2688 15.3739 25.4331C15.2801 25.4026 15.1886 25.3676 15.1006 25.3286C13.2426 26.6488 11.6057 27.6643 10.1364 28.4044C9.01558 28.9608 8.06102 29.337 7.18097 29.5699L8.84815 34.9154L2.86156 45.6656C2.5172 46.2841 2.37076 46.9714 2.43549 47.6737L3.73039 61.7865C3.89841 63.6201 5.46719 64.9987 7.30813 64.9989C7.41602 64.9989 7.52448 64.9941 7.63409 64.9845C9.61255 64.8101 11.0717 63.0951 10.8936 61.1545L9.69655 48.1083Z"/><path d="M1.76911 27.7981C2.15203 28.2808 2.69145 28.6937 3.28841 28.9432C3.88422 29.1967 4.51657 29.2983 5.13395 29.2983C5.13568 29.2983 5.1374 29.2983 5.13913 29.2983C6.61959 29.2828 8.08078 28.7928 9.87368 27.9031C11.2307 27.2195 12.773 26.2761 14.561 25.0164C13.5947 24.3088 13.1482 23.0485 13.5478 21.8655C13.9117 20.7884 14.8882 20.0407 16.0234 19.9425C15.2506 19.536 14.2757 19.5817 13.5351 20.1395C11.1168 21.9606 9.20048 23.1681 7.7741 23.884C6.67109 24.4482 5.85577 24.6876 5.41934 24.759C5.41301 24.219 5.66705 23.2427 6.06349 22.3338L6.64664 22.4272C6.40354 22.9624 6.2151 23.5261 6.10434 23.9915C6.46309 23.8679 6.93318 23.6774 7.50799 23.3838C9.02384 22.6231 10.9856 21.3476 13.1847 19.6918C13.6916 19.3105 14.2969 19.1084 14.9345 19.1084C15.7596 19.1084 16.5228 19.4482 17.068 20.0427C17.1063 20.0534 17.1451 20.0627 17.1828 20.0751C18.6696 20.5631 19.7378 20.7971 20.4475 20.9086C20.4113 20.8564 20.3744 20.8042 20.3362 20.7528C19.7516 19.9467 18.8738 19.0618 18.0994 18.497L18.5131 18.0979C19.3137 18.6957 20.1932 19.5814 20.804 20.424C21.1101 20.8426 21.3503 21.2499 21.4956 21.5728C20.6938 21.5759 19.1725 21.323 17.0021 20.6111C15.7958 20.2185 14.4934 20.8604 14.0938 22.0442C13.6937 23.228 14.3476 24.5058 15.5539 24.8976C18.024 25.6958 19.9052 26.0819 21.5172 26.0896C22.6921 26.0831 23.8201 25.8852 24.8173 25.151C25.3043 24.7875 25.71 24.2817 25.9496 23.7411C26.193 23.1998 26.2813 22.6468 26.2808 22.1452C26.2603 20.8561 25.798 19.8298 25.2341 18.8394C24.367 17.3725 23.1484 16.0131 21.8175 14.9091C21.8155 14.9075 21.8135 14.9058 21.8117 14.9041C21.1414 14.3545 20.4455 13.8727 19.7018 13.4942C18.9541 13.1252 18.1653 12.8196 17.1566 12.8071C16.7564 12.8063 16.3119 12.869 15.8706 13.0307L14.8395 13.3403C14.7647 13.5842 14.6747 13.8247 14.5717 14.0618C14.5015 14.1803 14.4434 14.3048 14.3965 14.4335C14.3671 14.4917 14.3389 14.5504 14.3076 14.6077C13.4238 16.2386 11.9459 17.4351 10.1453 17.9754C9.47235 18.1777 8.77815 18.2799 8.08049 18.2799C6.60291 18.2799 5.22084 17.8337 4.07467 17.0572C3.93082 17.2073 3.7936 17.362 3.65694 17.5206C2.87528 18.4673 2.21935 19.6147 1.70294 20.8578C1.60455 21.1 1.51364 21.3456 1.42704 21.5926C1.06886 22.6169 0.824039 23.6824 0.816559 24.7926C0.822313 25.7362 0.994353 26.8119 1.76911 27.7981Z"/><path d="M9.97731 17.4343C13.3956 16.408 15.3186 12.8572 14.2726 9.50333C13.2265 6.14944 9.60751 4.26253 6.18927 5.28878C2.77103 6.31503 0.847982 9.86583 1.89402 13.2197C2.94006 16.5736 6.55907 18.4605 9.97731 17.4343Z"/><path d="M20.4938 11.0647L25.3173 5.63735L22.5652 5.03359L25.6027 0.595574L24.5448 0L21.2335 5.62408L23.7445 5.99723L20.2579 10.9179L20.4938 11.0647Z"/><path d="M26.2297 10.4063L21.5625 12.5812L21.673 12.785L27.5384 10.7908L25.776 9.21209L29.9079 7.20661L29.3866 6.33301L24.5459 9.09664L26.2297 10.4063Z"/><path d="M17.6069 10.698L17.8359 10.7259L19.4775 4.94829L17.1877 5.46229L17.8486 1.0573L16.8345 0.981934L16.4029 6.37512L18.428 5.77221L17.6069 10.698Z"/></g><defs><clipPath id="clip0"><path fill="#fff" d="M0 0H30V65H0z"/></clipPath></defs></svg>